<?xml version="1.0" encoding="UTF-8" standalone="no"?>
<svg
   xmlns:dc="http://purl.org/dc/elements/1.1/"
   xmlns:cc="http://creativecommons.org/ns#"
   xmlns:rdf="http://www.w3.org/1999/02/22-rdf-syntax-ns#"
   xmlns:svg="http://www.w3.org/2000/svg"
   xmlns="http://www.w3.org/2000/svg"
   xmlns:sodipodi="http://sodipodi.sourceforge.net/DTD/sodipodi-0.dtd"
   xmlns:inkscape="http://www.inkscape.org/namespaces/inkscape"
   inkscape:version="1.0rc1 (09960d6, 2020-04-09)"
   inkscape:export-ydpi="300"
   inkscape:export-xdpi="300"
   inkscape:export-filename="/Users/romain/Documents/ConsultancyBr/CIMMYT-Fred/Script/v2/www/cimmyt.svg.png"
   height="138.5"
   width="600.20001"
   sodipodi:docname="cimmytlogo.svg"
   xml:space="preserve"
   viewBox="-153 -46 600.20001 138.5"
   y="0px"
   x="0px"
   id="layer"
   version="1.1"><metadata
   id="metadata23"><rdf:RDF><cc:Work
       rdf:about=""><dc:format>image/svg+xml</dc:format><dc:type
         rdf:resource="http://purl.org/dc/dcmitype/StillImage" /></cc:Work></rdf:RDF></metadata><defs
   id="defs21" /><sodipodi:namedview
   inkscape:current-layer="layer"
   inkscape:window-maximized="0"
   inkscape:window-y="25"
   inkscape:window-x="0"
   inkscape:cy="73.8"
   inkscape:cx="304.5"
   inkscape:zoom="0.7208589"
   showgrid="false"
   id="namedview19"
   inkscape:window-height="677"
   inkscape:window-width="1213"
   inkscape:pageshadow="2"
   inkscape:pageopacity="0"
   guidetolerance="10"
   gridtolerance="10"
   objecttolerance="10"
   borderopacity="1"
   bordercolor="#666666"
   pagecolor="#ffffff" />
<style
   id="style10"
   type="text/css">
	.st0{fill:#77BD43;}
</style>
<path
   inkscape:connector-curvature="0"
   id="path12"
   d="m -131.4,-2.4 v -43.5 h 2 v 43.6 l 0.1,13.2 -0.5,5.4 c -0.3,2.2 -1.2,4.3 -2.7,6 -0.9,1.1 -1.9,2.1 -3,3.1 -0.9,0.8 -1.7,1.9 -2.1,3.1 l -0.6,3.1 3.3,-4.5 c 3.4,-3.5 6.5,-6.4 7,-11.7 l 0.1,-1.6 v -59.5 h 2 v 62.8 c -0.3,5.5 -1.5,10.9 -3.5,16.1 0,0 -1.3,2.7 -2.6,4.9 -1.8,3 -4,4.5 -6,8.8 l -0.2,3 -2.5,0.1 -0.3,-6.2 c -0.3,-1 -0.5,-2.1 -0.6,-3.2 -0.1,-1.3 -0.5,-2.6 -1.1,-3.7 l -0.2,-0.3 C -154,23.4 -152.9,11.7 -152.9,11.7 L -153,9.9 v -55.7 h 1.8 l 0.1,50.5 0.2,3.4 c -0.1,2.7 0.8,5.4 2.6,7.4 2.1,2.3 2.3,2.2 4,4.2 1.1,1.4 2,2.9 2.7,4.5 l 0.1,-2.4 -0.9,-2.4 -1.4,-1.7 c -3.8,-3 -5.8,-7.6 -5.5,-12.4 l -0.1,-51.1 h 1.7 v 35.6 l 0.6,3.1 c 0,0 1.3,4.2 2.7,7.4 2.2,5.4 3.9,8.5 3.9,8.5 -0.1,-1.9 -0.3,-3.7 -0.8,-5.5 -0.6,-1.1 -1.7,-3.7 -1.7,-3.7 -0.9,-2.2 -1.5,-4.4 -2,-6.7 l -0.6,-2.5 v -1.9 l -0.1,-34.3 h 1.7 v 22 c -0.1,2.5 0.5,5 1.7,7.1 0.6,1.4 1.1,2.9 1.5,4.3 0,0 0.5,-1.7 -0.7,-6.8 -0.3,-1.4 -0.6,-6.3 -0.6,-6.3 v -20.3 h 1.7 v 13.4 c 0,0 0.6,5.8 1.1,4.2 0.4,-1.1 0.6,-2.2 0.7,-3.3 V -46 h 1.8 v 30.9 c -0.1,2.1 -0.4,4.3 -1,6.3 -0.6,1.5 -0.7,3.1 -0.5,4.7 0.9,-1.2 1.5,-2.6 1.9,-4 0.4,-1.3 1.5,-5.4 1.5,-5.4 v -32.4 h 1.8 v 42.8 c -0.5,3 -1.3,5.9 -2.3,8.8 -1.2,3.6 -1.8,4.3 -2.1,5.6 -0.2,1.2 -0.3,2.4 -0.2,3.6 l 2.6,-5.7 c 0.6,-1.2 1.5,-3 1.5,-3 0,0 0.6,-1.5 1.5,-4 z m 25.8,-9.3 c 0.7,0.2 1.3,0.6 1.8,1.2 0.3,0.4 0.4,0.8 0.5,1.2 0.3,0.9 0.1,1.8 -0.4,2.5 -0.4,0.6 -1.2,0.9 -1.9,0.8 -0.7,-0.1 -1.3,-0.2 -1.9,-0.4 -0.5,-0.2 -1,-0.4 -1.4,-0.8 -0.5,-0.4 -0.7,-1 -0.8,-1.6 -0.2,-0.6 -0.2,-1.3 0,-2 0,-0.5 0.3,-1 0.7,-1.2 0.4,-0.3 1,-0.4 1.5,-0.3 0.3,0 0.6,0.1 0.9,0.2 z m -10.3,-9.2 c 0.1,0.6 0.1,1.4 0.3,2.2 0.2,1.3 0.4,2 0.5,2.5 0.1,0.4 -0.1,0.8 -0.4,1 -0.2,0.1 -0.3,0.1 -0.3,0.1 -0.3,-0.1 -0.5,-0.3 -0.6,-0.9 -0.1,-0.6 -0.3,-1.5 -0.3,-2.3 -0.1,-0.7 -0.1,-1.4 0,-2.1 0,-0.3 0.1,-0.6 0.2,-0.9 0,0 0,-0.1 0.3,0 0.1,0 0.3,0.2 0.3,0.4 z m 0.2,-7.4 v 0.7 c 0,0.9 0.1,1.7 0.3,2.6 0.3,0.9 0.4,1.8 0.2,2.7 -0.1,0.2 -0.2,0.3 -0.3,0.4 -0.3,0.2 -0.4,0.2 -0.7,-0.1 -0.3,-0.5 -0.5,-1.1 -0.5,-1.6 l -0.1,-1.3 c -0.1,-0.9 -0.1,-1.9 0,-2.8 0,-0.4 0.1,-0.8 0.3,-1.1 0.1,-0.1 0.2,-0.1 0.3,-0.1 0.5,0.1 0.5,0.3 0.5,0.6 z m -0.2,13.8 c 0.1,0.6 0.2,1.5 0.3,2.2 0.2,1.3 0.4,2 0.5,2.5 0.1,0.4 -0.1,0.8 -0.4,1 -0.2,0.1 -0.3,0.1 -0.4,0.1 -0.1,0 -0.5,-0.3 -0.6,-0.9 -0.1,-0.8 -0.2,-1.5 -0.3,-2.3 -0.1,-0.7 -0.1,-1.4 0,-2.1 0,-0.3 0.1,-0.6 0.2,-0.9 0,0 0,-0.1 0.3,0 0.2,0.1 0.3,0.2 0.4,0.4 z m 10.3,-3.5 c 0.7,0.2 1.3,0.6 1.8,1.2 0.3,0.4 0.4,0.8 0.5,1.2 0.3,0.8 0.1,1.7 -0.4,2.4 -0.4,0.6 -1.2,0.9 -1.9,0.8 -0.7,-0.1 -1.3,-0.2 -1.9,-0.4 -0.5,-0.2 -1,-0.4 -1.4,-0.8 -0.4,-0.4 -0.7,-0.9 -0.8,-1.5 -0.2,-0.7 -0.2,-1.3 0,-2 0,-0.5 0.3,-1 0.7,-1.2 0.4,-0.3 1,-0.4 1.5,-0.3 0.3,0 0.6,0.1 0.9,0.2 z m 0,18.9 c 0.7,0.2 1.3,0.6 1.8,1.2 0.3,0.4 0.4,0.8 0.5,1.2 0.3,0.8 0.1,1.8 -0.4,2.5 -0.4,0.6 -1.2,0.9 -1.9,0.8 -0.7,-0.1 -1.3,-0.2 -1.9,-0.4 -0.5,-0.2 -1,-0.4 -1.4,-0.8 -0.4,-0.4 -0.7,-0.9 -0.8,-1.5 -0.2,-0.6 -0.2,-1.3 0,-2 0,-0.5 0.3,-1 0.7,-1.2 0.4,-0.3 1,-0.4 1.5,-0.3 0.3,0 0.6,0.1 0.9,0.2 z m 0,-6.3 c 0.7,0.2 1.3,0.6 1.8,1.2 0.3,0.4 0.4,0.8 0.5,1.2 0.3,0.8 0.1,1.8 -0.4,2.5 -0.4,0.6 -1.2,0.9 -1.9,0.8 -0.7,-0.1 -1.3,-0.2 -1.9,-0.4 -0.5,-0.1 -1,-0.4 -1.4,-0.7 -0.4,-0.4 -0.7,-0.9 -0.8,-1.5 -0.1,-0.6 -0.1,-1.3 0,-1.9 0,-0.5 0.3,-1 0.7,-1.2 0.4,-0.3 1,-0.4 1.5,-0.3 0.3,0 0.6,0.1 0.9,0.2 z m 0,19 c 0.7,0.2 1.3,0.7 1.8,1.2 0.3,0.4 0.4,0.8 0.5,1.2 0.3,0.8 0.1,1.8 -0.4,2.5 -0.4,0.6 -1.2,0.9 -1.9,0.8 -0.7,-0.1 -1.3,-0.2 -1.9,-0.4 -0.5,-0.1 -1,-0.4 -1.4,-0.8 -0.5,-0.4 -0.7,-1 -0.8,-1.6 -0.2,-0.6 -0.2,-1.3 0,-2 0,-0.5 0.3,-1 0.7,-1.2 0.4,-0.3 1,-0.4 1.5,-0.3 0.3,0 0.6,0.1 0.9,0.1 z m 0,-6.4 c 0.7,0.2 1.3,0.7 1.8,1.2 0.3,0.4 0.4,0.8 0.5,1.2 0.3,0.8 0.1,1.7 -0.4,2.5 -0.4,0.6 -1.2,0.9 -1.9,0.8 -0.7,-0.1 -1.3,-0.2 -1.9,-0.4 -0.5,-0.1 -1,-0.4 -1.4,-0.8 -0.4,-0.4 -0.7,-0.9 -0.8,-1.5 -0.2,-0.6 -0.2,-1.3 0,-1.9 0,-0.5 0.3,-1 0.7,-1.2 0.4,-0.3 1,-0.4 1.5,-0.3 0.3,0 0.6,0.1 0.9,0.2 z m 0,19 c 0.7,0.2 1.3,0.6 1.8,1.2 0.3,0.4 0.4,0.8 0.5,1.2 0.3,0.8 0.1,1.8 -0.4,2.5 -0.4,0.6 -1.2,0.9 -1.9,0.8 -0.7,-0.1 -1.3,-0.2 -1.9,-0.4 -0.5,-0.1 -1,-0.4 -1.4,-0.7 -0.4,-0.4 -0.7,-0.9 -0.8,-1.5 -0.2,-0.7 -0.2,-1.3 0,-2 0,-0.5 0.3,-1 0.7,-1.2 0.4,-0.3 1,-0.4 1.5,-0.3 0.3,0 0.6,0.1 0.9,0.2 z m 0,-6.3 c 0.7,0.2 1.3,0.6 1.8,1.2 0.3,0.4 0.4,0.8 0.5,1.3 0.3,0.8 0.1,1.8 -0.4,2.5 -0.4,0.6 -1.2,0.9 -1.9,0.8 -0.7,-0.1 -1.3,-0.2 -1.9,-0.4 -0.5,-0.1 -1,-0.4 -1.4,-0.8 -0.4,-0.4 -0.7,-0.9 -0.8,-1.5 -0.1,-0.6 -0.1,-1.3 0,-1.9 0,-0.5 0.3,-1 0.7,-1.2 0.4,-0.3 1,-0.4 1.5,-0.3 0.3,0 0.6,0.1 0.9,0.1 z m 0,19 c 0.7,0.2 1.3,0.6 1.8,1.2 0.3,0.4 0.4,0.8 0.5,1.2 0.3,0.9 0.1,1.8 -0.4,2.5 -0.4,0.6 -1.2,0.9 -1.9,0.8 -0.7,-0.1 -1.3,-0.2 -1.9,-0.4 -0.5,-0.1 -1,-0.4 -1.4,-0.8 -0.5,-0.4 -0.7,-1 -0.8,-1.6 -0.2,-0.6 -0.2,-1.3 0,-2 0,-0.5 0.3,-1 0.7,-1.2 0.4,-0.3 1,-0.4 1.5,-0.3 0.3,0 0.6,0.1 0.9,0.2 z m 0,-6.4 c 0.7,0.2 1.3,0.6 1.8,1.2 0.3,0.4 0.4,0.8 0.5,1.2 0.3,0.8 0.1,1.7 -0.4,2.5 -0.4,0.6 -1.2,0.9 -1.9,0.8 -0.7,-0.1 -1.3,-0.2 -1.9,-0.4 -0.5,-0.1 -1,-0.4 -1.4,-0.8 -0.4,-0.4 -0.7,-0.9 -0.8,-1.5 -0.2,-0.6 -0.2,-1.3 0,-2 0,-0.5 0.3,-1 0.7,-1.2 0.4,-0.3 1,-0.4 1.5,-0.3 0.3,0 0.6,0.1 0.9,0.2 z m 0,12.7 c 0.7,0.2 1.3,0.6 1.8,1.2 0.3,0.4 0.4,0.8 0.5,1.2 0.3,0.8 0.1,1.8 -0.4,2.5 -0.4,0.6 -1.2,0.9 -1.9,0.8 -0.7,-0.1 -1.3,-0.2 -1.9,-0.4 -0.5,-0.1 -1,-0.4 -1.4,-0.7 -0.4,-0.4 -0.7,-0.9 -0.8,-1.5 -0.1,-0.6 -0.1,-1.3 0,-1.9 0,-0.5 0.3,-1 0.7,-1.2 0.4,-0.3 1,-0.4 1.5,-0.3 0.3,0 0.6,0.1 0.9,0.2 h 0.1 z m -4.7,-55.9 c -0.1,0.5 -0.5,0.8 -1,0.9 -0.4,0.2 -0.9,0.1 -1.3,-0.2 -0.4,-0.2 -0.8,-0.5 -1.1,-0.9 -0.4,-0.5 -0.8,-1 -1.1,-1.6 -0.4,-0.8 -0.5,-1.6 -0.4,-2.4 0.1,-0.6 0.5,-1.1 1.1,-1.3 0.6,-0.1 1.2,0.1 1.6,0.5 0.4,0.4 0.8,0.8 1.1,1.1 0.7,0.8 1.1,1.9 1.1,3 0.2,0.4 0.1,0.7 0,0.9 z m 0,6.5 c -0.1,0.5 -0.5,0.9 -1,0.9 -0.4,0.2 -0.9,0.1 -1.3,-0.2 -0.4,-0.2 -0.8,-0.5 -1.1,-0.9 -0.4,-0.5 -0.8,-1 -1.1,-1.6 -0.4,-0.8 -0.5,-1.6 -0.4,-2.4 0.1,-0.6 0.5,-1.1 1.1,-1.2 0.6,-0.1 1.2,0.1 1.6,0.4 0.4,0.4 0.8,0.8 1.1,1.2 0.7,0.8 1.1,1.9 1.1,3 0.2,0.2 0.1,0.5 0,0.8 z m 0,6.4 c -0.1,0.5 -0.5,0.9 -1,0.9 -0.4,0.2 -0.9,0.1 -1.3,-0.2 -0.4,-0.2 -0.8,-0.5 -1.1,-0.9 -0.4,-0.5 -0.8,-1 -1.1,-1.6 -0.4,-0.8 -0.5,-1.6 -0.4,-2.4 0.1,-0.6 0.5,-1.1 1.1,-1.3 0.6,-0.1 1.2,0.1 1.6,0.4 0.4,0.4 0.8,0.8 1.1,1.2 0.3,0.4 0.6,0.9 0.8,1.4 0.2,0.5 0.3,1 0.3,1.6 0.2,0.3 0.1,0.6 0,0.9 z m 0,6.4 c -0.1,0.5 -0.5,0.9 -1,0.9 -0.4,0.1 -0.9,0.1 -1.3,-0.2 -0.4,-0.2 -0.8,-0.5 -1.1,-0.9 -0.4,-0.5 -0.8,-1 -1.1,-1.6 -0.4,-0.8 -0.5,-1.6 -0.4,-2.4 0.1,-0.6 0.5,-1.1 1.1,-1.3 0.6,-0.1 1.2,0.1 1.6,0.5 0.4,0.4 0.8,0.8 1.1,1.2 0.7,0.8 1.1,1.9 1.1,3 0.1,0.2 0.1,0.5 0,0.8 z m 0,6.4 c -0.1,0.5 -0.5,0.8 -1,0.9 -0.4,0.2 -0.9,0.1 -1.3,-0.1 -0.4,-0.2 -0.8,-0.5 -1.1,-0.9 -0.4,-0.5 -0.8,-1 -1.1,-1.6 -0.4,-0.8 -0.5,-1.6 -0.4,-2.4 0.1,-0.6 0.5,-1.1 1.1,-1.3 0.6,-0.1 1.2,0.1 1.6,0.4 0.4,0.4 0.8,0.8 1.1,1.2 0.7,0.8 1.1,1.9 1.1,3 0.2,0.3 0.1,0.5 0,0.8 z m 0,6.4 c -0.1,0.5 -0.5,0.8 -1,0.9 -0.4,0.1 -0.9,0.1 -1.3,-0.2 -0.4,-0.2 -0.8,-0.5 -1.1,-0.9 -0.4,-0.5 -0.8,-1 -1.1,-1.6 -0.4,-0.8 -0.5,-1.6 -0.4,-2.4 0.1,-0.6 0.5,-1.1 1.1,-1.2 0.6,-0.1 1.2,0.1 1.6,0.5 0.4,0.4 0.8,0.7 1.1,1.1 0.7,0.8 1.1,1.9 1.1,3 0.1,0.3 0.1,0.6 0,0.8 z m 0,6.5 c -0.1,0.5 -0.5,0.9 -1,0.9 -0.4,0.1 -0.9,0.1 -1.3,-0.2 -0.4,-0.2 -0.8,-0.5 -1.1,-0.9 -0.4,-0.5 -0.8,-1 -1.1,-1.6 -0.4,-0.8 -0.5,-1.6 -0.4,-2.4 0.1,-0.6 0.5,-1.1 1.1,-1.3 0.6,-0.1 1.2,0.1 1.6,0.5 0.4,0.4 0.8,0.8 1.1,1.2 0.7,0.8 1.1,1.9 1.1,3 0.1,0.2 0.1,0.5 0,0.8 z m 0,6.4 c -0.1,0.5 -0.5,0.9 -1,0.9 -0.4,0.1 -0.9,0.1 -1.3,-0.2 -0.4,-0.2 -0.8,-0.5 -1.1,-0.9 -0.4,-0.5 -0.8,-1 -1.1,-1.6 -0.4,-0.8 -0.5,-1.6 -0.4,-2.4 0.1,-0.6 0.5,-1.1 1.1,-1.3 0.6,-0.1 1.2,0.1 1.6,0.4 0.4,0.4 0.8,0.8 1.1,1.2 0.3,0.4 0.6,0.9 0.8,1.4 0.2,0.5 0.3,1.1 0.3,1.6 0.2,0.3 0.1,0.6 0,0.9 z m 0,6.4 c -0.1,0.5 -0.5,0.8 -1,0.9 -0.4,0.1 -0.9,0.1 -1.3,-0.2 -0.4,-0.2 -0.8,-0.5 -1.1,-0.9 -0.4,-0.5 -0.8,-1 -1.1,-1.6 -0.4,-0.8 -0.5,-1.6 -0.4,-2.4 0.1,-0.6 0.5,-1.1 1.1,-1.3 0.6,-0.1 1.2,0.1 1.6,0.5 0.4,0.4 0.8,0.8 1.1,1.1 0.3,0.4 0.6,0.9 0.8,1.4 0.2,0.5 0.3,1 0.3,1.6 0.2,0.3 0.1,0.6 0,0.9 z m 0,6.1 c -0.1,0.5 -0.5,0.9 -1,0.9 -0.4,0.1 -0.9,0.1 -1.3,-0.2 -0.4,-0.2 -0.8,-0.5 -1.1,-0.9 -0.4,-0.5 -0.8,-1 -1.1,-1.6 -0.4,-0.8 -0.5,-1.6 -0.4,-2.4 0.1,-0.6 0.5,-1.1 1.1,-1.2 0.6,-0.1 1.2,0.1 1.6,0.4 0.4,0.4 0.8,0.8 1.1,1.2 0.3,0.4 0.6,0.9 0.8,1.4 0.2,0.5 0.4,1 0.3,1.6 0.1,0.2 0,0.5 0,0.8 z m -5.6,-54.9 c 0.1,0.6 0.2,1.5 0.3,2.2 0.2,1.3 0.4,2 0.5,2.5 0.1,0.4 -0.1,0.8 -0.4,1 -0.2,0.1 -0.3,0.1 -0.4,0.1 -0.1,0 -0.5,-0.3 -0.6,-0.9 -0.1,-0.6 -0.3,-1.5 -0.3,-2.3 -0.1,-0.7 -0.1,-1.4 0,-2.1 0,-0.3 0.1,-0.6 0.2,-0.9 0,0 0,-0.1 0.3,0 0.2,0 0.3,0.2 0.4,0.4 z m -0.1,6.3 c 0.1,0.6 0.1,1.5 0.3,2.2 0.2,1.3 0.4,2 0.5,2.5 0.1,0.4 -0.1,0.8 -0.4,1 -0.2,0.1 -0.3,0.1 -0.4,0.1 -0.1,0 -0.5,-0.3 -0.6,-0.9 -0.1,-0.6 -0.3,-1.5 -0.3,-2.3 -0.1,-0.7 -0.1,-1.4 0,-2.1 0,-0.3 0.1,-0.6 0.2,-0.9 0,0 0,-0.1 0.3,0 0.2,0.1 0.4,0.3 0.4,0.4 z m 0,6.4 c 0.1,0.6 0.1,1.5 0.3,2.2 0.2,1.3 0.4,2 0.5,2.5 0.1,0.4 -0.1,0.8 -0.4,1 -0.2,0.1 -0.3,0.1 -0.4,0.1 -0.1,0 -0.5,-0.3 -0.6,-0.9 -0.1,-0.6 -0.3,-1.5 -0.3,-2.3 -0.1,-0.7 -0.1,-1.4 0,-2.1 0,-0.3 0.1,-0.6 0.2,-0.9 0,0 0,-0.1 0.3,0 0.2,0.1 0.4,0.2 0.4,0.4 z m 0.1,6.4 c 0.1,0.6 0.2,1.5 0.3,2.2 0.2,1.3 0.4,2.1 0.5,2.5 0.1,0.4 -0.1,0.8 -0.4,1 -0.2,0.1 -0.3,0.1 -0.4,0.1 -0.1,0 -0.5,-0.3 -0.6,-0.9 -0.1,-0.6 -0.3,-1.5 -0.3,-2.3 -0.1,-0.7 -0.1,-1.4 0,-2.1 0,-0.3 0.1,-0.6 0.2,-0.9 0,0 0,-0.1 0.3,0 0.2,0 0.3,0.2 0.4,0.4 z m -0.1,6.4 c 0.1,0.6 0.1,1.4 0.3,2.2 0.2,1.3 0.4,2.1 0.5,2.5 0.1,0.4 -0.1,0.8 -0.4,1 -0.2,0.1 -0.3,0.1 -0.4,0.1 -0.1,0 -0.5,-0.3 -0.6,-0.9 -0.1,-0.6 -0.3,-1.5 -0.3,-2.3 -0.1,-0.7 -0.1,-1.4 0,-2.1 0,-0.3 0.1,-0.6 0.2,-0.9 0,0 0,-0.1 0.3,0 0.2,0 0.4,0.2 0.4,0.4 z m 0.1,6.4 c 0.1,0.6 0.1,1.5 0.3,2.2 0.2,1.3 0.4,2 0.5,2.5 0.1,0.4 -0.1,0.8 -0.4,1 -0.1,0.1 -0.2,0.1 -0.3,0.1 -0.3,-0.1 -0.5,-0.3 -0.6,-0.9 -0.1,-0.6 -0.3,-1.5 -0.3,-2.3 -0.1,-0.7 -0.1,-1.4 0,-2.1 0,-0.3 0.1,-0.6 0.2,-0.9 0,0 0,-0.1 0.3,0 0.1,0.1 0.3,0.2 0.3,0.4 z m 0,6.5 c 0.1,0.6 0.2,1.5 0.3,2.2 0.2,1.3 0.4,2 0.5,2.5 0.1,0.4 -0.1,0.8 -0.4,1 -0.2,0.1 -0.3,0.1 -0.4,0.1 -0.1,0 -0.5,-0.3 -0.6,-0.9 -0.1,-0.6 -0.3,-1.5 -0.3,-2.3 -0.1,-0.7 -0.1,-1.4 0,-2.1 0,-0.3 0.1,-0.6 0.2,-0.9 0,0 0,-0.1 0.3,0 0.2,0.1 0.3,0.2 0.4,0.4 z m 0,6.5 c 0.1,0.6 0.2,1.5 0.3,2.2 0.2,1.3 0.4,2 0.5,2.5 0.1,0.4 -0.1,0.8 -0.4,1 -0.1,0.1 -0.2,0.1 -0.4,0.1 -0.3,-0.1 -0.5,-0.3 -0.6,-0.9 -0.1,-0.6 -0.3,-1.5 -0.3,-2.3 -0.1,-0.7 -0.1,-1.4 0,-2.1 0,-0.3 0.1,-0.6 0.2,-0.9 0,0 0,-0.1 0.3,0 0.2,0.1 0.3,0.2 0.4,0.4 z m 5.6,-53.7 c -0.1,0.5 -0.5,0.8 -1,0.9 -0.4,0.2 -0.9,0.1 -1.3,-0.1 -0.4,-0.2 -0.8,-0.5 -1.1,-0.9 -0.4,-0.5 -0.8,-1 -1.1,-1.6 -0.4,-0.8 -0.5,-1.6 -0.4,-2.4 0.1,-0.6 0.5,-1.1 1.1,-1.3 0.6,-0.1 1.2,0.1 1.6,0.5 0.4,0.4 0.8,0.8 1.1,1.1 0.3,0.4 0.6,0.9 0.8,1.4 0.2,0.5 0.3,1 0.3,1.6 0.2,0.2 0.1,0.5 0,0.8 z m 10.8,4.8 c 0.6,-0.2 1.2,-0.2 1.8,-0.1 0.5,0.1 0.9,0.4 1.2,0.8 0.2,0.5 0.3,1.1 0.4,1.7 0,0.3 0,0.7 -0.1,1 -0.1,0.6 -0.3,1.1 -0.8,1.5 -0.4,0.4 -0.9,0.6 -1.5,0.8 -0.6,0.2 -1.3,0.3 -2,0.4 -0.7,0.1 -1.5,-0.2 -1.9,-0.8 -0.5,-0.7 -0.7,-1.6 -0.4,-2.5 0.1,-0.8 0.6,-1.6 1.4,-2 0.3,-0.2 0.6,-0.3 0.9,-0.4 z m 9.7,-9.7 c 0.6,-0.2 0.7,0.2 0.7,1.1 0.1,0.7 0.1,1.4 0,2.1 0,0.8 -0.2,1.6 -0.3,2.3 0,0.5 -0.3,0.9 -0.7,1.1 -0.4,0.1 -0.8,-0.3 -1,-0.7 -0.1,-0.5 -0.1,-0.9 0,-1.4 0.1,-0.6 0.3,-1.2 0.3,-1.8 0.1,-0.7 0.2,-1.5 0.3,-2.2 0.2,-0.2 0.4,-0.4 0.7,-0.5 z"
   class="st0" />
<path
   inkscape:connector-curvature="0"
   id="path14"
   d="m -89.8,-28.8 c 0.2,0 0.3,0 0.3,0.1 0.2,0.3 0.3,0.7 0.4,1.1 0.1,0.9 0.1,1.9 0,2.8 l -0.1,1.3 c 0,0.6 -0.2,1.2 -0.5,1.7 -0.3,0.3 -0.4,0.3 -0.7,0.1 -0.3,-0.2 -0.4,-0.6 -0.4,-1 0.1,-0.7 0.2,-1.4 0.4,-2.1 0.2,-0.8 0.3,-1.7 0.3,-2.6 v -0.8 c -0.1,-0.3 0,-0.5 0.3,-0.6 z m 0,13.8 h 0.3 c 0.1,0.3 0.2,0.6 0.2,0.9 0.1,0.7 0.1,1.4 0,2.1 0,0.8 -0.2,1.6 -0.3,2.3 -0.1,0.7 -0.3,0.8 -0.6,0.9 -0.1,0 -0.3,0 -0.4,-0.1 -0.3,-0.2 -0.5,-0.6 -0.4,-1 0.2,-0.9 0.3,-1.8 0.5,-2.5 0.1,-0.7 0.1,-1.6 0.3,-2.2 0.1,-0.2 0.2,-0.4 0.4,-0.4 z m -9.7,-3.4 c 0.6,-0.2 1.2,-0.2 1.8,-0.1 0.5,0.1 0.9,0.4 1.2,0.8 0.2,0.5 0.3,1.1 0.4,1.6 0,0.3 0,0.7 -0.1,1 0,0.6 -0.3,1.1 -0.8,1.5 -0.4,0.4 -0.9,0.6 -1.5,0.8 -0.6,0.2 -1.3,0.3 -2,0.4 -0.7,0.1 -1.5,-0.2 -1.9,-0.8 -0.5,-0.7 -0.7,-1.7 -0.4,-2.5 0.1,-0.8 0.6,-1.5 1.4,-1.9 0.3,-0.2 0.6,-0.3 0.9,-0.4 z m 0,19 c 0.6,-0.2 1.2,-0.2 1.8,-0.1 0.5,0.1 0.9,0.4 1.2,0.8 0.2,0.5 0.3,1.1 0.4,1.7 0,0.3 0,0.7 -0.1,1 -0.1,0.6 -0.3,1.1 -0.8,1.5 -0.4,0.4 -0.9,0.6 -1.5,0.7 -0.6,0.2 -1.3,0.4 -2,0.4 -0.8,0.1 -1.5,-0.2 -1.9,-0.8 -0.5,-0.7 -0.7,-1.7 -0.4,-2.5 0.3,-1.2 1.2,-2.1 2.3,-2.4 z m 0,-6.3 c 0.6,-0.2 1.2,-0.2 1.8,-0.1 0.5,0.1 0.9,0.4 1.2,0.8 0.2,0.5 0.3,1.1 0.4,1.7 0,0.3 0,0.7 -0.1,1 -0.1,0.6 -0.3,1.1 -0.8,1.5 -0.4,0.4 -0.9,0.6 -1.5,0.8 -0.6,0.2 -1.3,0.3 -1.9,0.4 -0.7,0.1 -1.5,-0.2 -1.9,-0.8 -0.5,-0.7 -0.7,-1.6 -0.4,-2.5 0.1,-0.8 0.6,-1.6 1.4,-2 0.3,-0.2 0.6,-0.3 0.9,-0.4 z m 0,18.9 c 0.6,-0.2 1.2,-0.2 1.8,-0.1 0.5,0.1 0.9,0.4 1.2,0.8 0.2,0.5 0.3,1.1 0.4,1.6 0,0.3 0,0.7 -0.1,1 -0.1,0.6 -0.3,1.1 -0.8,1.5 -0.4,0.4 -0.9,0.6 -1.5,0.8 -0.6,0.2 -1.3,0.3 -2,0.4 -0.7,0.1 -1.5,-0.2 -1.9,-0.8 -0.9,-1.5 -0.4,-3.5 1,-4.5 0.3,-0.2 0.6,-0.3 0.9,-0.5 z m 0,-6.3 c 0.6,-0.2 1.2,-0.2 1.8,-0.1 0.5,0.1 0.9,0.4 1.2,0.8 0.2,0.5 0.3,1.1 0.4,1.7 0,0.3 0,0.7 -0.1,1 -0.1,0.6 -0.3,1.1 -0.8,1.5 -0.4,0.4 -0.9,0.6 -1.5,0.7 -0.6,0.2 -1.3,0.3 -2,0.4 -0.7,0.1 -1.4,-0.2 -1.9,-0.7 -0.9,-1.5 -0.4,-3.5 1,-4.5 0.3,-0.2 0.6,-0.3 0.9,-0.4 z m 0,19 c 0.6,-0.2 1.2,-0.2 1.8,-0.1 0.5,0.1 0.9,0.4 1.2,0.8 0.2,0.5 0.3,1.1 0.4,1.7 0,0.3 0,0.7 -0.1,1 -0.1,0.6 -0.3,1.1 -0.8,1.5 -0.4,0.4 -0.9,0.6 -1.5,0.8 -0.6,0.2 -1.3,0.3 -2,0.4 -0.7,0.1 -1.5,-0.2 -1.9,-0.8 -0.9,-1.5 -0.4,-3.5 1,-4.5 0.3,-0.2 0.6,-0.3 0.9,-0.4 z m 0,-6.3 c 0.6,-0.2 1.2,-0.2 1.8,-0.1 0.5,0.1 0.9,0.4 1.2,0.8 0.2,0.5 0.3,1.1 0.4,1.7 0,0.3 0,0.7 -0.1,1 -0.1,0.6 -0.3,1.1 -0.8,1.5 -0.4,0.4 -0.9,0.6 -1.5,0.8 -0.6,0.2 -1.3,0.3 -1.9,0.3 -0.7,0.1 -1.5,-0.2 -1.9,-0.8 -0.5,-0.7 -0.7,-1.7 -0.4,-2.5 0.1,-0.8 0.6,-1.6 1.4,-2 0.3,-0.2 0.6,-0.3 0.9,-0.4 z m 0,18.9 c 0.6,-0.2 1.2,-0.2 1.8,-0.1 0.5,0.1 0.9,0.4 1.2,0.8 0.2,0.5 0.3,1.1 0.4,1.7 0,0.3 0,0.7 -0.1,1 -0.1,0.6 -0.3,1.1 -0.8,1.5 -0.4,0.4 -0.9,0.6 -1.5,0.8 -0.6,0.2 -1.3,0.3 -2,0.4 -0.7,0.1 -1.5,-0.2 -1.9,-0.8 -0.5,-0.7 -0.7,-1.7 -0.4,-2.5 0.1,-0.8 0.6,-1.6 1.4,-2 0.3,-0.2 0.6,-0.3 0.9,-0.4 z m 0,-6.3 c 0.6,-0.2 1.2,-0.2 1.8,-0.1 0.5,0.1 0.9,0.4 1.2,0.8 0.2,0.5 0.3,1.1 0.4,1.7 0,0.3 0,0.7 -0.1,1 -0.1,0.6 -0.3,1.1 -0.8,1.5 -0.4,0.4 -0.9,0.6 -1.5,0.8 -0.6,0.2 -1.3,0.3 -2,0.4 -0.7,0.1 -1.4,-0.2 -1.9,-0.7 -0.5,-0.7 -0.7,-1.7 -0.4,-2.5 0.1,-0.8 0.6,-1.5 1.4,-1.9 0.3,-0.2 0.6,-0.3 0.9,-0.4 h 0.1 z m 0,12.7 c 0.6,-0.2 1.2,-0.2 1.8,-0.1 0.5,0.1 0.9,0.4 1.2,0.8 0.2,0.5 0.3,1.1 0.4,1.7 0,0.3 0,0.7 -0.1,1 -0.1,0.6 -0.3,1.1 -0.8,1.5 -0.4,0.4 -0.9,0.6 -1.5,0.7 -0.6,0.2 -1.3,0.3 -1.9,0.4 -0.7,0.1 -1.5,-0.2 -1.9,-0.8 -0.5,-0.7 -0.7,-1.7 -0.4,-2.5 0.1,-0.8 0.6,-1.6 1.4,-2 0.3,-0.2 0.6,-0.3 0.9,-0.4 z m 3.6,-56.5 c 0,-0.8 0.3,-1.7 0.7,-2.4 0.2,-0.4 0.6,-0.8 0.9,-1.2 0.4,-0.4 0.8,-0.8 1.4,-1 0.5,-0.2 1.1,0 1.5,0.3 0.5,0.6 0.6,1.4 0.4,2.1 -0.2,0.8 -0.5,1.5 -0.9,2.1 -0.4,0.6 -1,1.1 -1.7,1.5 -0.4,0.3 -0.9,0.3 -1.3,0.2 -0.5,-0.1 -0.9,-0.4 -1,-0.9 0,-0.2 0,-0.4 0,-0.7 z m 0,6.4 c 0,-0.8 0.3,-1.7 0.7,-2.4 0.3,-0.4 0.6,-0.8 0.9,-1.1 0.3,-0.5 0.8,-0.8 1.4,-1 0.5,-0.2 1.1,0 1.5,0.3 0.5,0.6 0.7,1.4 0.5,2.1 -0.1,0.8 -0.5,1.5 -0.9,2.2 -0.4,0.6 -1,1.1 -1.7,1.5 -0.4,0.3 -0.9,0.3 -1.3,0.2 -0.5,-0.1 -0.9,-0.4 -1,-0.9 -0.1,-0.3 -0.1,-0.6 -0.1,-0.9 z m 0,6.5 c 0,-0.8 0.3,-1.7 0.7,-2.4 0.3,-0.4 0.6,-0.8 0.9,-1.1 0.3,-0.5 0.8,-0.8 1.4,-1 0.5,-0.2 1.1,0 1.5,0.3 0.5,0.6 0.6,1.4 0.4,2.1 -0.1,0.8 -0.5,1.5 -0.9,2.1 -0.4,0.6 -1,1.2 -1.7,1.6 -0.4,0.3 -0.9,0.3 -1.3,0.2 -0.5,-0.1 -0.9,-0.4 -1,-0.9 0,-0.4 0,-0.7 0,-0.9 z m 0,6.4 c 0,-0.8 0.3,-1.7 0.7,-2.4 0.3,-0.4 0.6,-0.8 0.9,-1.2 0.4,-0.5 0.8,-0.8 1.4,-1 0.5,-0.2 1.1,0 1.5,0.3 0.5,0.6 0.6,1.4 0.4,2.1 -0.1,0.8 -0.4,1.5 -0.8,2.1 -0.4,0.6 -1,1.1 -1.7,1.5 -0.4,0.2 -0.9,0.3 -1.3,0.2 -0.5,-0.1 -0.9,-0.4 -1,-0.9 -0.1,-0.2 -0.1,-0.5 -0.1,-0.7 z m 0,6.4 c 0,-0.8 0.3,-1.7 0.7,-2.4 0.2,-0.4 0.6,-0.8 0.9,-1.2 0.3,-0.5 0.8,-0.8 1.4,-1 0.5,-0.2 1.1,0 1.5,0.3 0.5,0.6 0.6,1.3 0.4,2.1 -0.1,0.8 -0.5,1.5 -0.9,2.2 -0.4,0.6 -1,1.1 -1.7,1.5 -0.4,0.2 -0.9,0.3 -1.3,0.2 -0.5,-0.1 -0.9,-0.4 -1,-0.9 0,-0.3 0,-0.5 0,-0.8 z m 0,6.4 c 0,-0.9 0.2,-1.7 0.7,-2.4 0.2,-0.4 0.6,-0.8 0.9,-1.2 0.4,-0.5 0.8,-0.8 1.4,-1 0.5,-0.2 1.1,0 1.5,0.3 0.5,0.6 0.6,1.4 0.4,2.1 -0.2,0.8 -0.5,1.5 -0.9,2.2 -0.4,0.6 -1,1.1 -1.7,1.5 -0.4,0.3 -0.9,0.3 -1.3,0.2 -0.5,-0.1 -0.9,-0.5 -1,-0.9 0,-0.3 0,-0.5 0,-0.8 z m 0,6.4 c 0,-0.8 0.3,-1.7 0.7,-2.4 0.2,-0.4 0.6,-0.8 0.9,-1.2 0.3,-0.5 0.8,-0.8 1.4,-1 0.5,-0.2 1.1,0 1.5,0.3 0.5,0.6 0.6,1.4 0.4,2.1 -0.1,0.8 -0.4,1.5 -0.8,2.2 -0.4,0.6 -1,1.1 -1.7,1.5 -0.4,0.3 -0.9,0.3 -1.3,0.2 -0.5,-0.1 -0.9,-0.4 -1,-0.9 -0.1,-0.2 -0.1,-0.5 -0.1,-0.8 z m 0,6.5 c 0,-0.8 0.3,-1.7 0.7,-2.4 0.2,-0.4 0.6,-0.8 0.9,-1.2 0.4,-0.5 0.8,-0.8 1.4,-1 0.5,-0.2 1.1,0 1.5,0.3 0.5,0.6 0.6,1.4 0.4,2.1 -0.1,0.8 -0.5,1.5 -0.9,2.2 -0.4,0.6 -1,1.1 -1.7,1.5 -0.4,0.3 -0.9,0.3 -1.3,0.2 -0.5,-0.1 -0.9,-0.4 -1,-0.9 0,-0.3 0,-0.6 0,-0.8 z m 0,6.4 c 0,-0.8 0.3,-1.6 0.7,-2.3 0.2,-0.4 0.6,-0.8 0.9,-1.1 0.3,-0.5 0.8,-0.8 1.4,-1 0.5,-0.2 1.1,-0.1 1.5,0.3 0.5,0.6 0.6,1.4 0.4,2.1 -0.2,0.8 -0.5,1.5 -0.9,2.1 -0.4,0.6 -1,1.1 -1.7,1.5 -0.4,0.3 -0.9,0.3 -1.3,0.2 -0.5,-0.1 -0.9,-0.4 -1,-0.9 0,-0.4 0,-0.6 0,-0.9 z m 0,6.1 c 0,-0.8 0.3,-1.7 0.7,-2.4 0.3,-0.4 0.6,-0.8 0.9,-1.2 0.4,-0.5 0.8,-0.8 1.4,-1 0.5,-0.2 1.2,-0.1 1.6,0.3 0.5,0.6 0.6,1.4 0.4,2.1 -0.3,1.5 -1.2,2.9 -2.5,3.7 -0.4,0.3 -0.9,0.3 -1.3,0.2 -0.5,-0.1 -0.9,-0.4 -1,-0.9 -0.1,-0.2 -0.1,-0.5 -0.2,-0.8 z m 6.1,-54.5 c 0.2,-0.1 0.3,0 0.3,0 0.1,0.3 0.2,0.6 0.2,0.9 0.1,0.7 0.1,1.4 0,2.1 0,0.8 -0.2,1.6 -0.3,2.3 -0.1,0.7 -0.3,0.8 -0.6,0.9 0,0 -0.1,0 -0.3,-0.1 -0.3,-0.2 -0.5,-0.6 -0.4,-1 0.2,-0.9 0.4,-1.8 0.5,-2.5 0.1,-0.7 0.1,-1.6 0.3,-2.2 0,-0.2 0.1,-0.4 0.3,-0.4 z m 0,6.5 c 0.2,-0.1 0.3,0 0.3,0 0.1,0.3 0.2,0.6 0.2,0.9 0.1,0.7 0.1,1.4 0,2.1 0,0.8 -0.2,1.6 -0.3,2.3 0,0.4 -0.2,0.8 -0.6,0.9 -0.1,0 -0.3,0 -0.4,-0.1 -0.3,-0.2 -0.4,-0.6 -0.4,-1 0.2,-1 0.3,-1.8 0.5,-2.5 0.1,-0.7 0.1,-1.6 0.3,-2.2 0,-0.2 0.2,-0.3 0.4,-0.4 z m 0.1,6.2 c 0.2,-0.1 0.3,0 0.3,0 0.1,0.3 0.2,0.6 0.2,0.9 0.1,0.7 0.1,1.4 0,2.1 0,0.8 -0.2,1.6 -0.3,2.3 -0.1,0.7 -0.3,0.8 -0.6,0.9 0,0 -0.1,0 -0.3,-0.1 -0.3,-0.2 -0.5,-0.6 -0.4,-1 0.2,-1 0.3,-1.8 0.5,-2.5 0.1,-0.7 0.1,-1.5 0.3,-2.2 -0.1,-0.2 0.1,-0.4 0.3,-0.4 z m -0.1,6.6 c 0.2,-0.1 0.3,0 0.3,0 0.1,0.3 0.2,0.6 0.2,0.9 0.1,0.7 0.1,1.4 0,2.1 0,0.8 -0.2,1.5 -0.3,2.3 -0.1,0.8 -0.3,0.8 -0.6,0.9 -0.3,0.1 -0.2,0 -0.4,-0.1 -0.3,-0.2 -0.5,-0.6 -0.4,-1 0.2,-0.9 0.3,-1.8 0.5,-2.5 0.2,-0.7 0.1,-1.5 0.3,-2.2 0.1,-0.3 0.2,-0.4 0.4,-0.4 z m 0,6.1 h 0.3 c 0.1,0.3 0.2,0.6 0.2,0.9 0.1,0.7 0.1,1.4 0,2.1 0,0.8 -0.2,1.5 -0.3,2.3 -0.1,0.8 -0.3,0.8 -0.6,0.9 -0.1,0 -0.3,0 -0.4,-0.1 -0.3,-0.2 -0.4,-0.6 -0.4,-1 0.2,-1 0.3,-1.8 0.5,-2.5 0.1,-0.7 0.1,-1.6 0.3,-2.2 0.1,-0.2 0.2,-0.3 0.4,-0.4 z m 0,6.6 h 0.3 c 0.1,0.3 0.2,0.6 0.2,0.9 0.1,0.7 0.1,1.4 0,2.1 0,0.8 -0.2,1.6 -0.3,2.3 -0.1,0.7 -0.3,0.8 -0.6,0.9 -0.3,0.1 -0.2,0 -0.4,-0.1 -0.3,-0.2 -0.4,-0.6 -0.4,-1 0.2,-1 0.3,-1.8 0.5,-2.5 0.2,-0.7 0.1,-1.6 0.3,-2.2 0.1,-0.2 0.2,-0.4 0.4,-0.4 z m 0,6.4 c 0.2,-0.1 0.3,0 0.3,0 0.1,0.3 0.2,0.6 0.2,0.9 0.1,0.7 0.1,1.4 0,2.1 0,0.8 -0.2,1.5 -0.3,2.3 -0.1,0.8 -0.3,0.8 -0.6,0.9 -0.3,0.1 -0.2,0 -0.4,-0.1 -0.3,-0.2 -0.5,-0.6 -0.4,-1 0.2,-0.9 0.3,-1.8 0.5,-2.5 0.1,-0.7 0.1,-1.6 0.3,-2.2 0.1,-0.2 0.2,-0.4 0.4,-0.4 z m 0,6.3 h 0.3 c 0.1,0.3 0.2,0.6 0.2,0.9 0.1,0.7 0.1,1.4 0,2.1 0,0.8 -0.2,1.6 -0.3,2.3 -0.1,0.7 -0.3,0.8 -0.6,0.9 -0.3,0.1 -0.2,0 -0.4,0 -0.3,-0.2 -0.5,-0.6 -0.4,-1 0.2,-1 0.3,-1.8 0.5,-2.5 0.2,-0.7 0.1,-1.5 0.3,-2.2 0,-0.2 0.2,-0.4 0.4,-0.5 z m -6.1,-53.9 c 0,-0.8 0.3,-1.7 0.7,-2.4 0.3,-0.4 0.6,-0.8 0.9,-1.2 0.3,-0.5 0.8,-0.8 1.4,-1 0.5,-0.2 1.1,0 1.5,0.3 0.5,0.6 0.6,1.3 0.4,2.1 -0.1,0.8 -0.5,1.5 -0.9,2.1 -0.4,0.7 -0.9,1.2 -1.6,1.7 -0.4,0.3 -0.9,0.3 -1.3,0.2 -0.5,-0.1 -0.9,-0.4 -1,-0.9 -0.1,-0.3 -0.1,-0.6 -0.1,-0.9 z m -13.6,-14.5 c -0.1,0.5 -0.4,1 -0.8,1.3 -1.4,1.1 -3,2 -4.8,2.4 -0.5,0.1 -1.1,-0.5 -1.3,-1 -0.7,-1.5 -0.8,-3.1 -0.3,-4.6 0.3,-0.8 1,-1.7 1.6,-1.5 1.8,0.4 3.4,1.2 4.8,2.4 0.7,0.4 0.8,0.6 0.8,1 z m 8.5,6.1 c 0.5,-0.1 1,0.1 1.4,0.4 1.5,1 2.8,2.4 3.7,3.9 0.2,0.4 -0.1,1.2 -0.5,1.6 -1.1,1.1 -2.7,1.7 -4.3,1.7 -0.9,-0.1 -1.9,-0.4 -1.9,-1.1 -0.1,-1.8 0.1,-3.7 0.8,-5.4 0.3,-0.7 0.4,-0.9 0.8,-1.1 z m -4,0.1 c 0.4,0.2 0.8,0.7 0.9,1.1 0.6,1.7 0.9,3.5 0.7,5.4 0,0.5 -0.8,0.9 -1.3,1 -1.6,0.2 -3.2,-0.2 -4.5,-1.2 -0.7,-0.6 -1.3,-1.5 -1,-2 0.9,-1.6 2.2,-2.9 3.7,-3.9 0.9,-0.4 1.2,-0.5 1.5,-0.4 z m -3,-2.6 c 0.2,0.5 0.2,1 0.1,1.5 -0.5,1.8 -1.3,3.4 -2.5,4.8 -0.3,0.3 -1.2,0.2 -1.7,0 -1.4,-0.8 -2.4,-2.1 -2.9,-3.6 -0.2,-0.9 -0.2,-1.9 0.4,-2.2 1.7,-0.7 3.5,-1 5.3,-0.9 0.8,0.1 1.1,0.1 1.3,0.4 z m 11.4,-3.6 c 0.1,-0.5 0.4,-1 0.8,-1.3 1.4,-1.1 3.1,-1.9 4.8,-2.3 0.5,-0.1 1.1,0.5 1.3,1 0.7,1.5 0.7,3.1 0.2,4.6 -0.3,0.9 -1,1.7 -1.6,1.5 -1.7,-0.4 -3.4,-1.2 -4.8,-2.4 -0.5,-0.5 -0.7,-0.7 -0.7,-1.1 z m -4.4,-6 c -0.5,-0.2 -0.8,-0.6 -0.9,-1.1 -0.6,-1.7 -0.9,-3.6 -0.7,-5.4 0,-0.5 0.8,-0.9 1.3,-1 1.6,-0.2 3.2,0.2 4.5,1.2 0.7,0.6 1.3,1.5 0.9,2 -1,1.6 -2.2,2.9 -3.8,3.9 -0.7,0.4 -0.9,0.5 -1.3,0.4 z m -3.9,0 c -0.5,0.1 -1,0 -1.4,-0.3 -1.5,-1 -2.8,-2.3 -3.7,-3.9 -0.2,-0.4 0.1,-1.2 0.5,-1.6 1.1,-1.1 2.6,-1.7 4.2,-1.8 0.9,0 1.9,0.4 1.9,1.1 0.2,1.8 -0.1,3.7 -0.7,5.4 -0.3,0.7 -0.4,0.9 -0.8,1.1 z m 7,2.2 c -0.2,-0.5 -0.2,-1 0,-1.5 0.5,-1.8 1.4,-3.4 2.6,-4.7 0.3,-0.4 1.1,-0.2 1.6,0 1.4,0.8 2.4,2.1 2.9,3.6 0.2,0.9 0.2,1.9 -0.4,2.2 -1.7,0.7 -3.5,1 -5.3,0.9 -0.8,-0.1 -1.1,-0.2 -1.4,-0.5 z m 0,7.5 c 0.4,-0.3 0.9,-0.5 1.4,-0.5 1.8,-0.1 3.6,0.3 5.3,1 0.4,0.2 0.6,1.1 0.5,1.6 -0.3,1.6 -1.2,3 -2.5,3.9 -0.8,0.5 -1.8,0.7 -2.2,0.3 -1.2,-1.4 -2,-3.1 -2.4,-4.8 -0.2,-0.9 -0.3,-1.1 -0.1,-1.5 z m -10.3,-7.5 c -0.4,0.4 -0.8,0.6 -1.4,0.6 -1.8,0.1 -3.6,-0.2 -5.3,-0.9 -0.4,-0.2 -0.6,-1.1 -0.5,-1.6 0.3,-1.6 1.2,-3 2.5,-3.9 0.8,-0.5 1.8,-0.8 2.2,-0.3 1.2,1.4 2.1,3 2.5,4.8 0.2,0.7 0.3,1 0,1.3 z"
   class="st0" />
<path
   inkscape:connector-curvature="0"
   id="path16"
   d="m -102.9,-26.3 c 3.3,0 6.1,-2.6 6.1,-6 0,-3.4 -2.6,-6.1 -6,-6.1 -3.3,0 -6.1,2.6 -6.1,6 0,0.1 0,0.1 0,0.2 0,3.3 2.7,5.9 6,5.9 z m 96,70.3 c -7.1,4.3 -15.6,5.6 -23.8,5.6 -10.6,0 -21.5,-2.4 -29.5,-9.5 -8,-7.1 -11.6,-17.1 -11.6,-27.4 0,-23.1 19.4,-34.6 41.5,-34.6 8,-0.1 16,1.2 23.7,3.7 0.8,0.3 2,0.5 1.7,2 -0.8,5.1 -1.4,10.3 -1.7,15.5 h -4 c -0.1,-2.9 -0.3,-5.8 -0.6,-8.6 -5,-5.1 -11.5,-6.9 -18.6,-6.9 -7.6,-0.2 -15,2.8 -20.2,8.4 -4.7,5.2 -6.1,12.6 -6.1,19.3 0,8.4 2.2,16.6 8.2,22.9 6.4,6.6 13.2,8.8 22.3,8.8 6.9,-0.2 13.7,-1.9 19.8,-5.1 l 1.2,1.2 z M 19.8,-8.7 c -0.1,-7.2 -0.5,-8.1 -8.9,-7.8 v -4.3 c 6.9,0.3 12.2,0.5 16.2,0.5 4,0 9.3,-0.2 16.1,-0.5 v 4.3 c -8.4,-0.3 -8.8,0.5 -8.8,7.8 v 45.1 c 0,7.2 0.4,8.1 8.8,7.7 v 4.3 c -6.9,-0.3 -12.1,-0.6 -16.1,-0.6 -4,0 -9.4,0.2 -16.2,0.6 v -4.2 c 8.3,0.2 8.7,-0.6 8.9,-7.8 z m 113.4,1.6 -11.2,21.9 -15.3,31.8 -1.1,2.3 h -3.5 C 101.9,48 99.7,43.4 98.4,40.5 l -24,-47.7 v 43.6 c 0,7.2 0.4,8.1 8.8,7.7 v 4.3 c -4.9,-0.3 -8.7,-0.6 -11.7,-0.6 -3,0 -6.9,0.2 -12,0.6 v -4.3 c 8.4,0.3 8.8,-0.5 8.8,-7.7 V -8.7 c 0,-7.2 -0.4,-8.1 -8.8,-7.8 v -4.4 c 6.1,0.3 10,0.5 13,0.5 3,0 6.8,-0.2 11.9,-0.5 1.9,4.3 5.4,12 7.8,16.4 l 16.3,33.3 c 1.7,-3 3.1,-5.8 4.6,-8.9 7.6,-15.7 16.7,-34.4 19.5,-40.8 5.1,0.3 8.9,0.5 11.9,0.5 3,0 6.9,-0.2 12.1,-0.5 v 4.3 c -8.4,-0.3 -8.8,0.5 -8.8,7.8 v 45.1 c 0,7.2 0.4,8.1 8.8,7.7 v 4.5 c -6.9,-0.3 -12.1,-0.6 -16.1,-0.6 -4.1,0 -9.4,0.2 -16.2,0.6 v -4.2 c 8.3,0.2 8.7,-0.6 8.8,-7.8 z m 112.8,0 -11.3,21.9 -15.2,31.8 -1.2,2.3 h -3.5 c -0.2,-0.9 -2.4,-5.5 -3.7,-8.4 l -24,-47.7 v 43.6 c 0,7.2 0.4,8.1 8.8,7.7 v 4.3 c -4.9,-0.3 -8.7,-0.6 -11.7,-0.6 -3,0 -7,0.2 -12,0.6 v -4.3 c 8.4,0.3 8.8,-0.5 8.8,-7.7 V -8.7 c 0,-7.2 -0.4,-8.1 -8.8,-7.8 v -4.4 c 6.1,0.3 10,0.5 12.9,0.5 3,0 6.9,-0.2 11.9,-0.5 1.9,4.3 5.4,12 7.8,16.4 l 16.4,33.2 c 1.7,-3 3.1,-5.8 4.6,-8.9 7.6,-15.7 16.7,-34.4 19.5,-40.8 5.1,0.3 8.9,0.5 11.9,0.5 3,0 6.9,-0.2 12.1,-0.5 v 4.3 c -8.4,-0.3 -8.8,0.5 -8.8,7.8 v 45.1 c 0,7.2 0.4,8.1 8.8,7.7 v 4.5 c -6.8,-0.3 -12.1,-0.6 -16.1,-0.6 -4,0 -9.4,0.2 -16.2,0.6 v -4.2 c 8.3,0.2 8.7,-0.6 8.8,-7.8 z m 76.4,19.2 C 330.6,-1 337.9,-12 342,-20.3 h 8 v 1.9 l -4.3,5.8 -11,16.3 -4.7,7.2 -3.2,6.4 c -0.5,1.5 -0.7,3.1 -0.6,4.7 v 14.3 c 0,7.2 0.4,8.1 8.8,7.7 v 4.3 c -6.9,-0.3 -12.1,-0.6 -16.1,-0.6 -4,0 -9.3,0.2 -16.2,0.6 v -4.2 c 8.3,0.2 8.8,-0.6 8.8,-7.8 V 23.6 c 0,-1.8 -0.3,-3.6 -0.9,-5.3 -1,-2.3 -2.4,-4.3 -3.7,-6.5 L 296.4,-4.6 c -1.7,-2.3 -3.5,-4.6 -5.4,-6.7 -2.1,-2.2 -5.1,-3.5 -8.1,-3.4 v -3.7 l 16.6,-3.6 c 5.7,3.1 8.8,8.3 11.9,13.6 z m 79.2,24.3 c 0,7.2 0.4,8.1 8.9,7.8 v 4.3 c -6.9,-0.3 -12.1,-0.6 -16.2,-0.6 -4.1,0 -9.4,0.2 -16.2,0.6 v -4.2 c 8.3,0.2 8.8,-0.6 8.9,-7.9 V -14 h -15.4 c -2.1,0 -3.9,1.3 -4.7,3.2 -0.2,1.7 -0.3,4.2 -0.5,6.8 h -4.2 c 0.2,-4.9 -0.4,-11.4 -0.3,-16.7 13.8,0.3 24.3,0.6 32.6,0.6 8.3,0 18.5,-0.3 32.7,-0.6 -0.3,4.5 -0.8,10.7 -1.4,16.7 h -4 c 0,-1.4 0,-2.8 -0.2,-4.2 -0.7,-5 0.3,-5.6 -5.4,-5.7 h -14.7 z m 17.5,12.5 v -14 h 2.7 l 3.2,9.9 c 0.3,0.9 0.5,1.6 0.7,2.1 l 0.7,-2.2 3.3,-9.7 h 2.4 v 14 h -1.7 V 37.3 l -4,11.7 h -1.6 l -4,-11.9 V 49 Z M 436.9,41 h 3.9 c 0.7,0 1.3,-0.1 1.9,-0.3 0.4,-0.2 0.8,-0.4 1.1,-0.8 0.2,-0.4 0.4,-0.8 0.4,-1.2 0,-0.6 -0.2,-1.2 -0.7,-1.6 -0.6,-0.5 -1.4,-0.7 -2.2,-0.6 H 437 V 41 Z m -1.8,7.9 v -14 h 6.1 c 0.9,0 1.9,0.1 2.8,0.4 0.6,0.3 1.2,0.7 1.5,1.3 0.4,0.6 0.6,1.4 0.6,2.1 0,0.9 -0.3,1.8 -0.9,2.5 -0.8,0.8 -1.9,1.2 -3,1.3 0.4,0.2 0.8,0.4 1.1,0.7 0.6,0.6 1.1,1.2 1.5,1.9 l 2.4,3.8 h -2.3 l -1.8,-3 c -0.5,-0.9 -1,-1.5 -1.3,-1.9 -0.3,-0.4 -0.6,-0.7 -0.9,-0.9 -0.3,-0.2 -0.5,-0.3 -0.8,-0.4 -0.3,0 -0.7,0 -1,0 h -2 v 6.2 z m -585.2,19.8 v 18.6 h -2.5 V 68.7 Z m 5.9,5.1 v 2.1 c 0.9,-1.6 2.6,-2.6 4.4,-2.5 0.8,0 1.5,0.1 2.2,0.4 0.6,0.2 1.1,0.6 1.5,1 0.4,0.4 0.6,0.9 0.8,1.5 0.2,0.7 0.3,1.4 0.3,2.1 v 8.9 h -2.3 v -9.1 c 0.1,-1.4 -0.9,-2.6 -2.3,-2.7 -0.1,0 -0.3,0 -0.4,0 -0.6,0 -1.2,0.1 -1.8,0.3 -0.5,0.2 -0.9,0.5 -1.2,0.9 -0.3,0.4 -0.6,0.8 -0.7,1.3 -0.2,0.5 -0.2,1.1 -0.2,1.7 v 7.6 h -2.3 V 73.9 Z m 18.1,0 v 2 h -2.7 v 8.4 c 0,0.2 0,0.4 0,0.6 0,0.1 0.1,0.3 0.3,0.4 0.2,0.1 0.3,0.2 0.5,0.2 0.3,0 0.6,0 0.8,0 h 1 v 1.9 h -1.6 c -0.5,0 -1,0 -1.5,-0.1 -0.4,-0.1 -0.7,-0.2 -1,-0.4 -0.3,-0.2 -0.5,-0.5 -0.6,-0.9 -0.1,-0.5 -0.2,-1 -0.2,-1.5 v -8.6 h -2.3 v -2 h 2.3 v -4 h 2.2 v 4 z m 12,12.6 c -1.1,0.8 -2.4,1.2 -3.8,1.1 -1,0 -1.9,-0.1 -2.8,-0.5 -0.8,-0.3 -1.4,-0.9 -2,-1.5 -0.6,-0.7 -1,-1.4 -1.2,-2.2 -0.3,-0.9 -0.4,-1.9 -0.4,-2.8 0,-1 0.1,-1.9 0.5,-2.8 0.3,-0.8 0.7,-1.6 1.3,-2.2 1.2,-1.3 2.8,-2 4.5,-2 1,0 2.1,0.2 3,0.7 0.8,0.5 1.4,1.1 1.9,1.9 0.5,0.8 0.8,1.6 1,2.5 0.2,0.9 0.2,1.7 0.2,2.6 H -122 c 0,0.6 0.1,1.1 0.2,1.7 0.2,0.5 0.4,1 0.8,1.4 0.4,0.4 0.8,0.7 1.3,1 0.6,0.3 1.3,0.4 1.9,0.4 0.8,0.1 1.6,-0.1 2.3,-0.6 0.6,-0.5 1.1,-1.2 1.2,-2 h 2.2 c -0.2,1.3 -0.9,2.5 -2,3.3 z m -0.5,-8.6 c -0.2,-0.5 -0.5,-0.9 -0.8,-1.2 -0.7,-0.7 -1.7,-1.1 -2.7,-1.1 -0.5,0 -1,0.1 -1.5,0.3 -0.4,0.2 -0.8,0.5 -1.2,0.8 -0.3,0.3 -0.6,0.8 -0.8,1.2 -0.2,0.5 -0.3,1 -0.3,1.5 h 7.7 c -0.1,-0.5 -0.2,-1 -0.4,-1.5 z m 7,-4 v 2.8 c 0.4,-1 1.1,-1.8 2,-2.4 0.9,-0.5 1.9,-0.8 3,-0.7 v 2.4 c -0.8,0 -1.5,0.1 -2.3,0.4 -0.6,0.2 -1.1,0.6 -1.5,1.1 -0.4,0.5 -0.7,1.1 -0.8,1.7 -0.2,0.8 -0.3,1.5 -0.3,2.3 v 6 h -2.2 V 74 Z m 9.2,0 v 2.1 c 0.9,-1.6 2.6,-2.6 4.4,-2.5 0.8,0 1.5,0.1 2.2,0.4 0.6,0.2 1.1,0.6 1.5,1 0.4,0.4 0.6,0.9 0.8,1.5 0.2,0.7 0.2,1.3 0.2,2 v 8.9 h -2.2 v -9.1 c 0.1,-0.8 -0.2,-1.5 -0.7,-2 -0.5,-0.5 -1.3,-0.8 -2,-0.7 -0.6,0 -1.2,0.1 -1.8,0.3 -0.5,0.2 -0.9,0.5 -1.2,0.9 -0.3,0.4 -0.6,0.8 -0.7,1.3 -0.2,0.5 -0.2,1.1 -0.2,1.7 v 7.6 h -2.4 V 73.8 Z m 22.7,13.8 c -0.5,0 -1,-0.1 -1.4,-0.5 -0.4,-0.4 -0.6,-1 -0.5,-1.6 -0.6,0.7 -1.3,1.2 -2.1,1.6 -0.8,0.3 -1.7,0.5 -2.6,0.5 -0.6,0 -1.2,-0.1 -1.7,-0.2 -0.5,-0.1 -1,-0.3 -1.4,-0.6 -0.4,-0.3 -0.7,-0.7 -1,-1.2 -0.2,-0.5 -0.4,-1.1 -0.3,-1.7 0,-0.7 0.1,-1.3 0.4,-1.9 0.2,-0.5 0.6,-0.9 1,-1.2 0.5,-0.3 1,-0.6 1.5,-0.7 0.6,-0.1 1.1,-0.3 1.7,-0.4 0.6,-0.1 1.2,-0.2 1.7,-0.3 0.5,0 1,-0.1 1.5,-0.3 0.4,-0.1 0.7,-0.2 1,-0.5 0.3,-0.3 0.4,-0.6 0.4,-1 0,-0.4 -0.1,-0.8 -0.3,-1.2 -0.2,-0.3 -0.4,-0.5 -0.7,-0.7 -0.3,-0.2 -0.6,-0.3 -1,-0.3 -0.4,0 -0.7,0 -1.1,0 -0.8,0 -1.6,0.2 -2.3,0.5 -0.7,0.4 -1.1,1.2 -1,2 h -2.3 c 0,-0.7 0.2,-1.4 0.5,-2.1 0.3,-0.6 0.7,-1 1.3,-1.4 0.5,-0.4 1.2,-0.6 1.8,-0.8 0.7,-0.2 1.4,-0.2 2.1,-0.2 0.6,0 1.2,0 1.8,0.1 0.6,0.1 1.1,0.3 1.6,0.5 0.5,0.3 0.9,0.7 1.2,1.1 0.3,0.6 0.5,1.2 0.4,1.9 v 6.9 c 0,0.4 0,0.8 0.1,1.1 0,0.3 0.3,0.4 0.6,0.4 0.2,0 0.5,-0.1 0.7,-0.2 v 1.7 c -0.5,0.6 -1,0.7 -1.6,0.7 z m -3.1,-6.8 c -0.4,0.1 -0.9,0.2 -1.5,0.2 l -1.5,0.2 c -0.5,0.1 -0.9,0.2 -1.4,0.4 -0.4,0.2 -0.7,0.4 -1,0.7 -0.3,0.4 -0.4,0.8 -0.4,1.3 0,0.3 0.1,0.6 0.2,0.9 0.1,0.2 0.3,0.5 0.6,0.6 0.3,0.2 0.5,0.3 0.8,0.3 0.3,0.1 0.6,0.1 1,0.1 0.6,0 1.3,-0.1 1.9,-0.3 0.5,-0.2 0.9,-0.4 1.3,-0.8 0.3,-0.3 0.6,-0.6 0.7,-1 0.2,-0.3 0.2,-0.7 0.2,-1 v -2.3 c -0.1,0.5 -0.5,0.6 -0.9,0.7 z m 12.6,-7 v 2 h -2.7 v 8.4 c 0,0.2 0,0.4 0,0.6 0,0.1 0.1,0.3 0.3,0.4 0.2,0.1 0.3,0.2 0.5,0.2 0.3,0 0.6,0 0.8,0 h 1 v 1.9 h -1.6 c -0.5,0 -1,0 -1.5,-0.1 -0.4,-0.1 -0.7,-0.2 -1,-0.4 -0.3,-0.2 -0.5,-0.6 -0.6,-0.9 -0.1,-0.5 -0.2,-1 -0.2,-1.5 v -8.6 h -2.3 v -2 h 2.4 v -4 h 2.2 v 4 z m 2.6,-2.4 v -2.7 h 2.2 v 2.7 z m 2.2,2.4 v 13.4 h -2.2 V 73.8 Z m 3.1,4 c 0.3,-0.8 0.7,-1.6 1.3,-2.2 0.6,-0.6 1.3,-1.1 2.1,-1.5 0.9,-0.4 1.8,-0.6 2.8,-0.6 1,0 1.9,0.2 2.8,0.6 0.8,0.3 1.5,0.9 2.1,1.5 0.6,0.7 1,1.4 1.3,2.2 0.3,0.9 0.4,1.9 0.4,2.8 0,0.9 -0.1,1.9 -0.4,2.8 -0.3,0.8 -0.7,1.6 -1.3,2.2 -0.6,0.6 -1.3,1.2 -2.1,1.5 -0.9,0.4 -1.9,0.5 -2.8,0.5 -1,0 -1.9,-0.2 -2.8,-0.5 -0.8,-0.3 -1.5,-0.9 -2.1,-1.5 -0.6,-0.7 -1,-1.4 -1.3,-2.2 -0.3,-0.9 -0.4,-1.8 -0.4,-2.8 -0.1,-0.9 0.1,-1.9 0.4,-2.8 z m 2.2,5 c 0.2,0.6 0.5,1.1 0.9,1.6 0.4,0.4 0.8,0.7 1.3,1 0.5,0.2 1.1,0.3 1.6,0.3 1.1,0 2.2,-0.5 3,-1.3 0.4,-0.5 0.7,-1 0.9,-1.6 0.4,-1.4 0.4,-2.9 0,-4.3 -0.2,-0.6 -0.5,-1.1 -0.9,-1.6 -0.4,-0.4 -0.8,-0.8 -1.3,-1 -0.5,-0.2 -1.1,-0.3 -1.6,-0.3 -0.6,0 -1.1,0.1 -1.6,0.3 -0.5,0.2 -1,0.6 -1.3,1 -0.4,0.5 -0.7,1 -0.9,1.6 -0.5,1.3 -0.5,2.8 -0.1,4.3 z m 15.1,-9 v 2.1 c 0.9,-1.6 2.6,-2.6 4.4,-2.5 0.8,0 1.5,0.1 2.2,0.4 0.6,0.2 1.1,0.6 1.5,1 0.4,0.4 0.6,0.9 0.8,1.5 0.2,0.7 0.2,1.3 0.2,2 v 8.9 h -2.2 v -9.1 c 0.1,-0.8 -0.2,-1.5 -0.7,-2 -0.5,-0.5 -1.3,-0.7 -2,-0.7 -0.6,0 -1.2,0.1 -1.8,0.3 -0.5,0.2 -0.9,0.5 -1.2,0.9 -0.3,0.4 -0.6,0.8 -0.7,1.3 -0.2,0.5 -0.3,1.1 -0.3,1.7 v 7.6 H -43 V 73.8 Z m 22.8,13.8 c -0.5,0 -1,-0.1 -1.4,-0.5 -0.4,-0.4 -0.6,-1 -0.5,-1.6 -0.6,0.7 -1.3,1.2 -2.1,1.6 -0.8,0.3 -1.7,0.5 -2.6,0.5 -0.6,0 -1.2,-0.1 -1.7,-0.2 -0.5,-0.1 -1,-0.3 -1.5,-0.6 -0.4,-0.3 -0.7,-0.7 -1,-1.2 -0.2,-0.5 -0.4,-1.1 -0.3,-1.7 0,-0.7 0.1,-1.3 0.4,-1.9 0.2,-0.5 0.6,-0.9 1,-1.2 0.5,-0.3 1,-0.6 1.5,-0.7 0.6,-0.1 1.1,-0.3 1.7,-0.4 0.6,-0.1 1.2,-0.2 1.7,-0.3 0.5,0 1,-0.1 1.5,-0.3 0.4,-0.1 0.7,-0.2 1,-0.5 0.3,-0.3 0.4,-0.6 0.4,-1 0,-0.4 -0.1,-0.8 -0.3,-1.2 -0.2,-0.3 -0.4,-0.5 -0.7,-0.7 -0.3,-0.2 -0.6,-0.3 -1,-0.3 -0.4,0 -0.7,0 -1.1,0 -0.8,0 -1.6,0.2 -2.3,0.5 -0.7,0.4 -1.1,1.2 -1,2 h -2.2 c 0,-0.7 0.2,-1.4 0.5,-2.1 0.3,-0.6 0.7,-1 1.3,-1.4 0.5,-0.4 1.1,-0.6 1.8,-0.8 0.7,-0.2 1.4,-0.2 2.1,-0.2 0.6,0 1.2,0 1.8,0.1 0.6,0.1 1.1,0.3 1.6,0.5 0.5,0.3 0.9,0.7 1.2,1.1 0.3,0.6 0.5,1.2 0.4,1.9 v 6.9 c 0,0.4 0,0.8 0.1,1.1 0,0.3 0.3,0.4 0.6,0.4 0.2,0 0.5,-0.1 0.7,-0.1 V 87 c -0.6,0.5 -1.1,0.6 -1.6,0.6 z m -3.1,-6.8 c -0.4,0.1 -0.9,0.2 -1.5,0.2 l -1.5,0.2 c -0.5,0.1 -0.9,0.2 -1.4,0.4 -0.4,0.2 -0.7,0.4 -1,0.7 -0.3,0.4 -0.4,0.8 -0.4,1.3 0,0.3 0.1,0.6 0.2,0.9 0.1,0.2 0.3,0.5 0.6,0.6 0.3,0.2 0.5,0.3 0.8,0.3 0.3,0.1 0.6,0.1 1,0.1 0.6,0 1.3,-0.1 1.9,-0.3 0.5,-0.2 0.9,-0.4 1.3,-0.8 0.3,-0.3 0.6,-0.6 0.8,-1 0.1,-0.3 0.2,-0.7 0.2,-1 v -2.2 c -0.3,0.4 -0.6,0.5 -1,0.6 z m 9.1,-12.1 v 18.6 h -2.3 V 68.7 Z m 14.4,0 5.9,15.6 6,-15.6 h 3.4 V 87.3 H 15.1 V 71.8 L 9.3,87.3 H 7.1 L 1.2,71.8 V 87.3 H -1.2 V 68.7 Z m 29.3,18.9 c -0.5,0 -1,-0.1 -1.4,-0.5 -0.4,-0.4 -0.6,-1 -0.5,-1.6 -0.6,0.7 -1.3,1.2 -2.1,1.6 -0.8,0.3 -1.7,0.5 -2.6,0.5 -0.6,0 -1.2,-0.1 -1.7,-0.2 -0.5,-0.1 -1,-0.3 -1.5,-0.6 -0.4,-0.3 -0.7,-0.7 -1,-1.2 -0.2,-0.5 -0.4,-1.1 -0.3,-1.7 0,-0.7 0.1,-1.3 0.4,-1.9 0.2,-0.5 0.6,-0.9 1,-1.2 0.5,-0.3 1,-0.6 1.5,-0.7 0.6,-0.1 1.1,-0.3 1.7,-0.4 0.6,-0.1 1.2,-0.2 1.7,-0.3 0.5,0 1,-0.1 1.5,-0.3 0.4,-0.1 0.7,-0.2 1,-0.5 0.3,-0.3 0.4,-0.6 0.4,-1 0,-0.4 -0.1,-0.8 -0.3,-1.2 -0.2,-0.3 -0.4,-0.5 -0.7,-0.7 -0.3,-0.2 -0.6,-0.3 -1,-0.3 -0.4,0 -0.7,0 -1.1,0 -0.8,0 -1.6,0.2 -2.3,0.5 -0.7,0.4 -1.1,1.2 -1,2 H 21 c 0,-0.7 0.2,-1.4 0.5,-2.1 0.3,-0.6 0.7,-1 1.3,-1.4 0.5,-0.4 1.1,-0.6 1.8,-0.8 0.7,-0.2 1.4,-0.2 2.1,-0.2 0.6,0 1.2,0 1.8,0.1 0.6,0.1 1.1,0.3 1.6,0.5 0.5,0.3 0.9,0.7 1.2,1.1 0.3,0.6 0.5,1.2 0.4,1.9 v 6.9 c 0,0.4 0,0.8 0.1,1.1 0,0.3 0.3,0.4 0.6,0.4 0.2,0 0.5,-0.1 0.7,-0.1 V 87 c -0.6,0.5 -1.1,0.6 -1.6,0.6 z M 28.4,80.8 C 28,80.9 27.5,81 26.9,81 l -1.5,0.2 c -0.5,0.1 -0.9,0.2 -1.4,0.4 -0.4,0.2 -0.7,0.4 -1,0.7 -0.3,0.4 -0.4,0.8 -0.4,1.3 0,0.3 0.1,0.6 0.2,0.9 0.1,0.2 0.3,0.5 0.6,0.6 0.3,0.2 0.5,0.3 0.8,0.3 0.3,0.1 0.7,0.1 1,0.1 0.6,0 1.3,-0.1 1.9,-0.3 0.5,-0.2 0.9,-0.4 1.3,-0.8 0.3,-0.3 0.6,-0.6 0.7,-1 0.1,-0.3 0.2,-0.7 0.2,-1 v -2.3 c -0.2,0.5 -0.6,0.6 -0.9,0.7 z m 6.8,-9.4 v -2.7 h 2.3 v 2.7 z m 2.3,2.4 V 87.2 H 35.3 V 73.8 Z m 10.5,2 h -7.6 v -2 h 10.4 v 1.5 l -8.2,10 h 8.6 v 1.9 H 39.8 v -1.7 z m 14.9,10.6 c -1.1,0.8 -2.4,1.2 -3.8,1.1 -1,0 -1.9,-0.1 -2.8,-0.5 -0.8,-0.3 -1.4,-0.9 -2,-1.5 -0.6,-0.7 -1,-1.4 -1.2,-2.2 -0.3,-0.9 -0.4,-1.9 -0.4,-2.8 0,-1 0.1,-1.9 0.5,-2.8 0.3,-0.8 0.7,-1.6 1.3,-2.2 0.5,-0.6 1.2,-1.1 2,-1.5 0.8,-0.4 1.7,-0.5 2.5,-0.5 1,0 2.1,0.2 3,0.7 0.8,0.5 1.5,1.2 1.9,1.9 0.5,0.8 0.8,1.6 1,2.5 0.2,0.9 0.2,1.7 0.2,2.6 H 55 c 0,0.6 0.1,1.1 0.2,1.7 0.2,0.5 0.4,1 0.8,1.4 0.4,0.4 0.8,0.7 1.3,1 0.6,0.3 1.3,0.4 1.9,0.4 0.8,0 1.6,-0.2 2.3,-0.7 0.6,-0.5 1.1,-1.2 1.2,-2 h 2.2 c -0.2,1.4 -0.9,2.6 -2,3.4 z m -0.6,-8.6 c -0.2,-0.5 -0.5,-0.9 -0.8,-1.2 -0.7,-0.7 -1.7,-1.1 -2.7,-1.1 -0.5,0 -1,0.1 -1.5,0.3 -0.4,0.2 -0.8,0.5 -1.2,0.8 -0.3,0.3 -0.6,0.8 -0.8,1.2 -0.2,0.5 -0.3,1 -0.3,1.5 h 7.7 c 0,-0.5 -0.1,-1 -0.4,-1.5 z M 85,87.6 c -0.5,0 -1,-0.1 -1.4,-0.5 -0.4,-0.4 -0.6,-1 -0.5,-1.6 -0.6,0.7 -1.3,1.2 -2.1,1.6 -0.8,0.3 -1.7,0.5 -2.6,0.5 -0.6,0 -1.2,-0.1 -1.7,-0.2 -0.5,-0.1 -1,-0.3 -1.5,-0.6 -0.4,-0.3 -0.7,-0.7 -1,-1.2 -0.3,-0.5 -0.4,-1.1 -0.4,-1.7 0,-0.7 0.1,-1.3 0.4,-1.9 0.3,-0.5 0.6,-0.9 1,-1.2 0.5,-0.3 1,-0.6 1.5,-0.7 0.6,-0.1 1.1,-0.3 1.7,-0.4 0.6,-0.1 1.2,-0.2 1.7,-0.3 0.5,0 1,-0.1 1.5,-0.3 0.4,-0.1 0.7,-0.2 1,-0.5 0.3,-0.2 0.4,-0.6 0.4,-1 0,-0.4 -0.1,-0.8 -0.3,-1.2 -0.2,-0.3 -0.4,-0.5 -0.7,-0.7 -0.3,-0.2 -0.6,-0.3 -1,-0.3 -0.3,0 -0.7,0 -1,0 -0.8,0 -1.6,0.2 -2.4,0.5 -0.7,0.4 -1.1,1.2 -1,2 h -2.2 c 0,-0.7 0.2,-1.4 0.5,-2.1 0.3,-0.6 0.7,-1 1.3,-1.4 0.5,-0.4 1.2,-0.6 1.8,-0.8 0.7,-0.2 1.4,-0.2 2.1,-0.2 0.6,0 1.2,0 1.8,0.1 0.6,0.1 1.1,0.3 1.6,0.5 0.5,0.3 0.9,0.7 1.2,1.1 0.3,0.6 0.5,1.2 0.4,1.9 v 6.9 c 0,0.4 0,0.8 0.1,1.1 0,0.3 0.3,0.4 0.6,0.4 0.2,0 0.5,-0.1 0.7,-0.1 V 87 c -0.4,0.5 -1,0.6 -1.5,0.6 z m -3.1,-6.8 c -0.5,0.1 -1,0.2 -1.5,0.2 l -1.5,0.2 c -0.5,0.1 -0.9,0.2 -1.4,0.4 -0.4,0.2 -0.7,0.4 -1,0.7 -0.3,0.4 -0.4,0.8 -0.4,1.3 0,0.3 0.1,0.6 0.2,0.9 0.1,0.2 0.3,0.5 0.6,0.6 0.3,0.2 0.5,0.3 0.8,0.3 0.3,0.1 0.7,0.1 1,0.1 0.6,0 1.3,-0.1 1.9,-0.3 0.5,-0.2 0.9,-0.4 1.3,-0.8 0.3,-0.3 0.6,-0.6 0.7,-1 0.2,-0.3 0.2,-0.7 0.2,-1 v -2.3 c -0.2,0.5 -0.6,0.6 -0.9,0.7 z m 8.8,-7 v 2.1 c 0.9,-1.6 2.6,-2.6 4.4,-2.5 0.8,0 1.5,0.1 2.2,0.4 0.6,0.2 1.1,0.6 1.5,1 0.4,0.4 0.6,0.9 0.8,1.5 0.2,0.7 0.2,1.3 0.2,2 v 8.9 h -2.2 v -9.1 c 0.1,-0.8 -0.2,-1.5 -0.7,-2 -0.5,-0.5 -1.3,-0.8 -2,-0.7 -0.6,0 -1.2,0.1 -1.8,0.3 -0.5,0.2 -0.9,0.5 -1.2,0.9 -0.3,0.4 -0.6,0.8 -0.7,1.3 -0.2,0.5 -0.3,1.1 -0.3,1.7 v 7.6 H 88.7 V 73.8 Z m 22.2,13.5 v -1.8 c -0.4,0.7 -1,1.3 -1.7,1.6 -0.8,0.3 -1.7,0.5 -2.6,0.5 -0.9,0 -1.9,-0.2 -2.7,-0.6 -0.7,-0.3 -1.4,-0.9 -1.9,-1.5 -0.5,-0.7 -0.9,-1.4 -1.2,-2.2 -0.3,-0.9 -0.4,-1.8 -0.4,-2.7 0,-0.9 0.1,-1.8 0.4,-2.7 0.2,-0.8 0.6,-1.6 1.1,-2.2 0.5,-0.6 1.2,-1.1 1.9,-1.5 0.8,-0.4 1.8,-0.6 2.7,-0.6 0.4,0 0.7,0 1.1,0.1 0.4,0.1 0.8,0.2 1.2,0.4 0.4,0.2 0.8,0.4 1.1,0.6 0.4,0.3 0.7,0.6 0.9,1 v -7 H 115 V 87.3 Z M 105,82.5 c 0.2,0.6 0.4,1.1 0.8,1.6 0.3,0.5 0.8,0.8 1.3,1.1 0.6,0.3 1.2,0.4 1.9,0.4 0.7,0 1.3,-0.1 1.9,-0.4 0.5,-0.3 1,-0.7 1.3,-1.2 0.3,-0.5 0.6,-1 0.7,-1.6 0.1,-0.6 0.2,-1.2 0.2,-1.8 0,-0.6 -0.1,-1.3 -0.2,-1.9 -0.1,-0.6 -0.4,-1.1 -0.7,-1.6 -0.3,-0.5 -0.8,-0.9 -1.3,-1.1 -0.6,-0.3 -1.3,-0.5 -2,-0.4 -0.7,0 -1.3,0.1 -1.9,0.4 -0.5,0.3 -0.9,0.7 -1.3,1.2 -0.3,0.5 -0.6,1.1 -0.7,1.7 -0.1,0.6 -0.2,1.3 -0.2,1.9 -0.1,0.5 0,1.1 0.2,1.7 z m 35.4,4.8 -4.2,-15.6 -4.3,15.6 h -2.6 l -4.8,-18.6 h 2.5 l 3.6,15.5 4.2,-15.5 h 2.7 l 4.1,15.5 3.8,-15.5 h 2.5 l -5,18.6 z m 11.8,-18.6 v 7.1 c 0.2,-0.4 0.4,-0.8 0.7,-1 0.3,-0.3 0.7,-0.5 1.1,-0.7 0.4,-0.2 0.8,-0.3 1.2,-0.4 0.4,-0.1 0.8,-0.1 1.2,-0.1 0.8,0 1.5,0.1 2.2,0.4 0.6,0.2 1.1,0.6 1.5,1 0.4,0.4 0.6,0.9 0.8,1.5 0.2,0.7 0.2,1.3 0.2,2 v 8.9 h -2.2 v -9.1 c 0.1,-1.4 -0.9,-2.6 -2.3,-2.7 -0.1,0 -0.3,0 -0.4,0 -0.6,0 -1.2,0.1 -1.8,0.3 -0.5,0.2 -0.9,0.5 -1.2,0.9 -0.3,0.4 -0.6,0.8 -0.7,1.3 -0.2,0.5 -0.3,1.1 -0.3,1.7 v 7.6 H 150 V 68.8 h 2.2 z m 21.7,17.7 c -1.1,0.8 -2.4,1.2 -3.8,1.1 -1,0 -1.9,-0.1 -2.8,-0.5 -0.8,-0.3 -1.4,-0.9 -2,-1.5 -0.6,-0.6 -1,-1.4 -1.2,-2.2 -0.3,-0.9 -0.4,-1.9 -0.4,-2.8 0,-1 0.1,-1.9 0.5,-2.8 0.3,-0.8 0.7,-1.6 1.3,-2.2 0.6,-0.6 1.2,-1.1 2,-1.5 0.8,-0.4 1.7,-0.5 2.5,-0.5 1,0 2.1,0.2 3,0.7 0.8,0.5 1.4,1.2 1.9,1.9 0.5,0.8 0.8,1.6 1,2.5 0.2,0.8 0.3,1.7 0.2,2.6 H 166 c 0,0.6 0.1,1.1 0.2,1.7 0.3,1.1 1.1,1.9 2.1,2.4 0.6,0.3 1.3,0.4 1.9,0.4 0.8,0 1.6,-0.2 2.3,-0.7 0.6,-0.5 1,-1.2 1.2,-2 h 2.2 c -0.2,1.4 -0.9,2.6 -2,3.4 z m -0.5,-8.6 c -0.4,-0.9 -1.1,-1.6 -2,-2 -0.5,-0.2 -1,-0.3 -1.5,-0.3 -0.5,0 -1,0.1 -1.5,0.3 -0.4,0.2 -0.9,0.5 -1.2,0.8 -0.3,0.4 -0.6,0.8 -0.8,1.2 -0.2,0.5 -0.3,1 -0.3,1.5 h 7.7 c 0,-0.5 -0.2,-1 -0.4,-1.5 z m 15.3,9.8 c -0.5,0 -1,-0.1 -1.4,-0.5 -0.4,-0.4 -0.6,-1 -0.5,-1.6 -0.6,0.7 -1.3,1.2 -2.1,1.6 -0.8,0.3 -1.7,0.5 -2.6,0.5 -0.6,0 -1.2,-0.1 -1.7,-0.2 -0.5,-0.1 -1,-0.3 -1.4,-0.6 -0.4,-0.3 -0.7,-0.7 -1,-1.2 -0.3,-0.5 -0.4,-1.1 -0.4,-1.7 0,-0.7 0.1,-1.3 0.4,-1.9 0.3,-0.5 0.6,-0.9 1,-1.2 0.4,-0.3 1,-0.6 1.5,-0.7 0.5,-0.1 1.1,-0.3 1.7,-0.4 0.6,-0.1 1.2,-0.2 1.7,-0.3 0.5,0 1,-0.1 1.5,-0.3 0.4,-0.1 0.7,-0.2 1,-0.5 0.3,-0.2 0.4,-0.6 0.4,-1 0,-0.4 -0.1,-0.8 -0.3,-1.2 -0.2,-0.3 -0.4,-0.5 -0.7,-0.7 -0.3,-0.2 -0.6,-0.3 -1,-0.3 -0.4,0 -0.7,0 -1.1,0 -0.8,0 -1.6,0.2 -2.4,0.5 -0.7,0.4 -1.1,1.2 -1,2 h -2.2 c 0,-0.7 0.2,-1.4 0.5,-2.1 0.3,-0.6 0.7,-1 1.3,-1.4 0.5,-0.4 1.2,-0.6 1.8,-0.8 0.7,-0.2 1.4,-0.2 2.1,-0.2 0.6,0 1.2,0 1.8,0.1 0.6,0.1 1.1,0.3 1.6,0.5 0.5,0.3 0.9,0.7 1.2,1.1 0.3,0.6 0.5,1.2 0.4,1.9 v 6.9 c 0,0.4 0,0.8 0.1,1.1 0,0.3 0.3,0.4 0.6,0.4 0.2,0 0.5,-0.1 0.7,-0.1 V 87 c -0.3,0.6 -0.9,0.6 -1.5,0.6 z m -3.1,-6.8 c -0.5,0.1 -0.9,0.2 -1.5,0.2 l -1.5,0.2 c -0.5,0.1 -0.9,0.2 -1.4,0.4 -0.4,0.2 -0.7,0.4 -1,0.7 -0.3,0.4 -0.4,0.8 -0.4,1.3 0,0.3 0.1,0.6 0.2,0.9 0.1,0.2 0.3,0.5 0.6,0.6 0.3,0.2 0.5,0.3 0.8,0.3 0.3,0.1 0.7,0.1 1,0.1 0.6,0 1.3,-0.1 1.9,-0.3 0.5,-0.2 0.9,-0.4 1.3,-0.8 0.3,-0.3 0.6,-0.6 0.7,-1 0.2,-0.3 0.2,-0.7 0.2,-1 v -2.2 c -0.2,0.4 -0.5,0.5 -0.9,0.6 z m 12.5,-7 v 2 h -2.7 v 8.4 c 0,0.2 0,0.4 0,0.6 0,0.1 0.1,0.3 0.2,0.4 0.2,0.1 0.3,0.2 0.5,0.2 0.3,0 0.6,0 0.8,0 h 1 v 1.9 h -1.7 c -0.5,0 -1,0 -1.5,-0.1 -0.4,-0.1 -0.7,-0.2 -1,-0.4 -0.3,-0.2 -0.5,-0.5 -0.6,-0.9 -0.1,-0.5 -0.2,-1 -0.2,-1.5 v -8.6 h -2.2 v -2 h 2.3 v -4 h 2.2 v 4 z m 12.6,-5.1 v 18.6 h -2.5 V 68.7 Z m 5.9,5.1 v 2 c 0.9,-1.5 2.6,-2.4 4.4,-2.3 0.8,0 1.6,0.2 2.3,0.5 0.7,0.4 1.2,1 1.5,1.8 0.4,-0.7 1.1,-1.3 1.8,-1.7 0.7,-0.4 1.6,-0.6 2.4,-0.6 0.6,0 1.2,0.1 1.8,0.2 0.5,0.1 1,0.4 1.4,0.7 0.4,0.3 0.7,0.7 0.9,1.2 0.2,0.6 0.3,1.2 0.3,1.8 v 9.9 h -2.2 v -8.8 c 0,-0.4 0,-0.8 -0.1,-1.2 -0.1,-0.3 -0.2,-0.7 -0.4,-1 -0.2,-0.3 -0.5,-0.5 -0.8,-0.6 -0.4,-0.2 -0.9,-0.3 -1.3,-0.2 -1,-0.1 -1.9,0.3 -2.6,0.9 -0.6,0.7 -1,1.6 -0.9,2.5 v 8.4 h -2.2 v -8.8 c 0,-0.4 0,-0.8 -0.1,-1.2 -0.1,-0.3 -0.2,-0.7 -0.4,-1 -0.2,-0.3 -0.5,-0.5 -0.8,-0.6 -0.4,-0.2 -0.8,-0.2 -1.2,-0.2 -0.6,0 -1.1,0.1 -1.7,0.4 -0.4,0.2 -0.8,0.5 -1.1,0.9 -0.3,0.3 -0.5,0.7 -0.6,1.1 -0.1,0.3 -0.2,0.6 -0.2,1 v 8.4 h -2.2 V 73.9 Z m 22.5,0 v 1.8 c 0.4,-0.7 1,-1.3 1.7,-1.6 0.8,-0.4 1.7,-0.5 2.6,-0.5 0.9,0 1.9,0.2 2.7,0.6 0.7,0.3 1.4,0.9 1.9,1.5 0.5,0.7 0.9,1.4 1.2,2.3 0.3,0.9 0.4,1.8 0.4,2.7 0,0.9 -0.1,1.8 -0.4,2.7 -0.2,0.8 -0.6,1.6 -1.1,2.2 -0.5,0.6 -1.2,1.1 -1.9,1.5 -0.9,0.4 -1.8,0.6 -2.7,0.5 -0.4,0 -0.7,0 -1.1,-0.1 -0.4,-0.1 -0.8,-0.2 -1.2,-0.3 -0.4,-0.1 -0.8,-0.3 -1.1,-0.5 -0.4,-0.3 -0.7,-0.6 -0.9,-1 v 6.9 H 237 V 73.8 Z m 7.9,4.8 c -0.2,-0.6 -0.4,-1.1 -0.7,-1.6 -0.3,-0.5 -0.8,-0.9 -1.3,-1.1 -0.6,-0.3 -1.2,-0.4 -1.9,-0.4 -1.3,0 -2.5,0.6 -3.2,1.6 -0.3,0.5 -0.6,1.1 -0.7,1.6 -0.1,0.6 -0.2,1.2 -0.2,1.8 0,0.6 0.1,1.3 0.2,1.9 0.1,0.6 0.4,1.1 0.7,1.6 0.3,0.5 0.8,0.9 1.3,1.1 0.6,0.3 1.3,0.4 2,0.4 0.7,0 1.3,-0.1 1.9,-0.4 0.5,-0.3 0.9,-0.7 1.2,-1.2 0.3,-0.5 0.6,-1.1 0.7,-1.7 0.1,-0.6 0.2,-1.3 0.2,-1.9 0.1,-0.5 0,-1.1 -0.2,-1.7 z m 7.2,-4.8 v 2.8 c 0.4,-1 1.1,-1.8 2,-2.4 0.9,-0.5 1.9,-0.8 3,-0.7 v 2.4 c -0.8,0 -1.5,0.1 -2.3,0.4 -0.6,0.2 -1.1,0.6 -1.5,1.1 -0.4,0.5 -0.7,1.1 -0.8,1.7 -0.2,0.8 -0.3,1.5 -0.3,2.3 v 6 h -2.2 V 74 Z m 5.9,4 c 0.3,-0.8 0.7,-1.6 1.3,-2.2 0.6,-0.6 1.3,-1.1 2.1,-1.5 1.8,-0.7 3.8,-0.7 5.6,0 0.8,0.3 1.5,0.9 2,1.5 0.6,0.7 1,1.4 1.3,2.2 0.3,0.9 0.4,1.9 0.4,2.8 0,0.9 -0.1,1.9 -0.4,2.8 -0.3,0.8 -0.7,1.6 -1.3,2.2 -0.6,0.6 -1.3,1.2 -2,1.5 -1.8,0.7 -3.8,0.7 -5.6,0 -0.8,-0.3 -1.5,-0.8 -2.1,-1.5 -0.6,-0.6 -1,-1.4 -1.3,-2.2 -0.3,-0.9 -0.4,-1.8 -0.4,-2.8 0,-0.9 0.1,-1.9 0.4,-2.8 z m 2.2,5 c 0.2,0.6 0.5,1.1 0.9,1.6 0.8,0.8 1.8,1.3 3,1.3 0.6,0 1.1,-0.1 1.6,-0.3 0.5,-0.2 1,-0.6 1.3,-1 0.4,-0.5 0.7,-1 0.9,-1.6 0.4,-1.4 0.4,-2.9 0,-4.3 -0.2,-0.6 -0.5,-1.1 -0.9,-1.6 -0.4,-0.4 -0.8,-0.8 -1.3,-1 -0.5,-0.2 -1.1,-0.3 -1.6,-0.3 -0.6,0 -1.1,0.1 -1.6,0.3 -0.5,0.2 -1,0.6 -1.3,1 -0.4,0.5 -0.7,1 -0.9,1.6 -0.5,1.3 -0.5,2.8 -0.1,4.3 z m 16.8,4.5 -5,-13.4 h 2.5 l 3.8,11.2 3.7,-11.2 h 2.3 l -4.9,13.4 z m 18.8,-0.9 c -1.1,0.8 -2.5,1.2 -3.8,1.1 -1,0 -1.9,-0.1 -2.8,-0.5 -0.8,-0.3 -1.4,-0.9 -2,-1.5 -0.6,-0.7 -1,-1.4 -1.2,-2.2 -0.3,-0.9 -0.4,-1.9 -0.5,-2.8 0,-1 0.2,-1.9 0.5,-2.8 0.3,-0.8 0.7,-1.6 1.3,-2.2 1.2,-1.2 2.8,-2 4.5,-2 1,0 2.1,0.2 3,0.7 0.8,0.5 1.5,1.1 2,1.9 0.5,0.8 0.8,1.6 1,2.5 0.2,0.9 0.2,1.7 0.2,2.6 H 290 c 0,0.6 0,1.1 0.2,1.7 0.1,0.5 0.4,1 0.7,1.4 0.4,0.4 0.8,0.7 1.3,1 0.6,0.3 1.2,0.4 1.9,0.4 0.8,0.1 1.7,-0.1 2.4,-0.6 0.6,-0.5 1.1,-1.2 1.2,-2 h 2.2 c -0.2,1.3 -0.9,2.5 -2,3.3 z m -0.5,-8.6 c -0.2,-0.4 -0.5,-0.9 -0.8,-1.2 -0.3,-0.3 -0.8,-0.6 -1.2,-0.8 -0.5,-0.2 -1,-0.3 -1.5,-0.3 -0.5,0 -1.1,0.1 -1.6,0.3 -0.4,0.2 -0.8,0.5 -1.2,0.8 -0.3,0.3 -0.6,0.8 -0.8,1.2 -0.2,0.5 -0.3,1 -0.3,1.5 h 7.7 c 0,-0.5 -0.1,-1 -0.3,-1.5 z m 7.1,-4 v 2 c 0.9,-1.5 2.6,-2.4 4.4,-2.3 0.8,0 1.6,0.2 2.3,0.5 0.7,0.4 1.2,1 1.5,1.8 0.4,-0.7 1.1,-1.3 1.8,-1.7 0.7,-0.4 1.6,-0.6 2.4,-0.6 0.6,0 1.2,0.1 1.8,0.2 0.5,0.1 1,0.4 1.4,0.7 0.4,0.3 0.7,0.7 0.9,1.2 0.2,0.6 0.3,1.2 0.3,1.8 v 9.9 h -2.2 v -8.8 c 0,-0.4 0,-0.8 -0.1,-1.2 -0.1,-0.3 -0.2,-0.7 -0.4,-1 -0.2,-0.3 -0.5,-0.5 -0.8,-0.6 -0.4,-0.2 -0.9,-0.3 -1.3,-0.2 -1,-0.1 -1.9,0.3 -2.6,0.9 -0.6,0.7 -1,1.6 -0.9,2.5 v 8.4 h -2.2 v -8.8 c 0,-0.4 0,-0.8 -0.1,-1.2 -0.1,-0.3 -0.2,-0.7 -0.4,-1 -0.2,-0.3 -0.5,-0.5 -0.8,-0.6 -0.4,-0.2 -0.8,-0.2 -1.2,-0.2 -0.6,0 -1.1,0.1 -1.7,0.4 -0.4,0.2 -0.8,0.5 -1.1,0.9 -0.3,0.3 -0.5,0.7 -0.6,1.1 -0.1,0.3 -0.2,0.6 -0.2,1 v 8.4 h -2.2 V 73.9 Z m 29.6,12.6 c -1.1,0.8 -2.4,1.2 -3.8,1.1 -1,0 -1.9,-0.1 -2.8,-0.5 -0.8,-0.3 -1.5,-0.8 -2,-1.5 -0.6,-0.6 -1,-1.4 -1.2,-2.2 -0.3,-0.9 -0.4,-1.9 -0.4,-2.8 0,-1 0.1,-1.9 0.5,-2.8 0.3,-0.8 0.7,-1.6 1.3,-2.2 0.5,-0.6 1.2,-1.1 2,-1.5 0.8,-0.4 1.7,-0.5 2.5,-0.5 1,0 2.1,0.2 3,0.7 0.8,0.5 1.4,1.2 1.9,1.9 0.5,0.8 0.8,1.6 1,2.5 0.2,0.9 0.2,1.7 0.2,2.6 h -10.1 c 0,0.6 0.1,1.1 0.2,1.7 0.2,0.5 0.4,1 0.8,1.4 0.4,0.4 0.8,0.7 1.3,1 0.6,0.3 1.3,0.4 1.9,0.4 0.8,0 1.6,-0.2 2.3,-0.7 0.6,-0.5 1.1,-1.2 1.2,-2 h 2.2 c -0.2,1.4 -0.9,2.6 -2,3.4 z m -0.5,-8.6 c -0.4,-0.9 -1.1,-1.6 -2,-2 -0.5,-0.2 -1,-0.3 -1.5,-0.3 -0.5,0 -1,0.1 -1.5,0.3 -0.4,0.2 -0.9,0.5 -1.2,0.8 -0.3,0.4 -0.6,0.8 -0.8,1.2 -0.2,0.5 -0.3,1 -0.3,1.5 h 7.7 c 0,-0.5 -0.2,-1 -0.4,-1.5 z m 7.1,-4 v 2.1 c 0.9,-1.6 2.6,-2.6 4.4,-2.5 0.8,0 1.5,0.1 2.2,0.4 1.1,0.4 1.9,1.4 2.2,2.6 0.2,0.7 0.2,1.3 0.2,2 v 8.9 h -2.2 v -9.1 c 0.1,-1.4 -0.9,-2.6 -2.3,-2.7 -0.1,0 -0.3,0 -0.4,0 -0.6,0 -1.2,0.1 -1.8,0.3 -0.5,0.2 -0.9,0.5 -1.2,0.9 -0.3,0.4 -0.6,0.8 -0.7,1.3 -0.2,0.5 -0.3,1.1 -0.3,1.7 v 7.6 h -2.3 V 73.9 Z m 18.1,0 v 2 h -2.7 v 8.4 c 0,0.2 0,0.4 0,0.6 0,0.1 0.1,0.3 0.3,0.4 0.1,0.1 0.3,0.2 0.5,0.2 0.3,0 0.6,0 0.8,0 h 1 v 1.9 H 357 c -0.5,0 -1,0 -1.5,-0.1 -0.4,-0.1 -0.7,-0.2 -1,-0.4 -0.3,-0.2 -0.5,-0.5 -0.6,-0.9 -0.1,-0.5 -0.2,-1 -0.2,-1.5 v -8.6 h -2.2 v -2 h 2.3 v -4 h 2.2 v 4 z m 21.3,-2.5 c -1,-0.7 -2.2,-1 -3.4,-1 -1,0 -2,0.2 -2.9,0.6 -0.8,0.4 -1.4,1 -1.9,1.7 -0.5,0.7 -0.9,1.5 -1.1,2.4 -0.2,0.9 -0.4,1.9 -0.4,2.8 0,1 0.1,2 0.4,3 0.2,0.9 0.6,1.7 1.1,2.5 0.5,0.7 1.2,1.3 2,1.8 0.9,0.4 1.9,0.7 2.9,0.6 0.7,0 1.5,-0.1 2.2,-0.4 0.6,-0.3 1.2,-0.6 1.6,-1.1 0.5,-0.5 0.8,-1.1 1.1,-1.7 0.3,-0.7 0.4,-1.4 0.5,-2.1 h 2.5 c -0.1,2.1 -1,4 -2.4,5.5 -1.5,1.4 -3.6,2.1 -5.6,1.9 -1.3,0 -2.6,-0.2 -3.8,-0.7 -1,-0.5 -2,-1.2 -2.7,-2 -0.7,-0.9 -1.3,-1.9 -1.6,-3.1 -0.4,-1.2 -0.5,-2.5 -0.5,-3.8 0,-1.3 0.2,-2.6 0.6,-3.8 0.3,-1.1 0.9,-2.2 1.7,-3.1 0.7,-0.9 1.7,-1.6 2.8,-2.1 1.2,-0.5 2.5,-0.8 3.8,-0.8 0.9,0 1.9,0.1 2.8,0.4 0.8,0.2 1.6,0.6 2.3,1.1 0.7,0.5 1.2,1.1 1.6,1.8 0.5,0.8 0.8,1.7 0.9,2.6 h -2.5 c -0.3,-1.2 -1,-2.3 -2,-3 z m 16.8,15.1 c -1.1,0.8 -2.5,1.2 -3.8,1.1 -1,0 -1.9,-0.1 -2.8,-0.5 -0.8,-0.3 -1.4,-0.9 -2,-1.5 -0.6,-0.7 -1,-1.4 -1.2,-2.2 -0.3,-0.9 -0.4,-1.9 -0.5,-2.8 0,-1 0.2,-1.9 0.5,-2.8 0.3,-0.8 0.7,-1.6 1.3,-2.2 0.6,-0.6 1.2,-1.1 2,-1.5 0.8,-0.4 1.7,-0.5 2.5,-0.5 1,0 2.1,0.2 3,0.7 0.8,0.5 1.4,1.2 1.9,1.9 0.5,0.8 0.8,1.6 1,2.5 0.2,0.8 0.3,1.7 0.2,2.6 h -10.1 c 0,0.6 0.1,1.1 0.2,1.7 0.3,1.1 1.1,1.9 2.1,2.4 0.6,0.3 1.3,0.4 1.9,0.4 0.8,0 1.6,-0.2 2.3,-0.7 0.6,-0.5 1,-1.2 1.2,-2 h 2.2 c -0.2,1.4 -0.9,2.6 -1.9,3.4 z m -0.6,-8.6 c -0.4,-0.9 -1.1,-1.6 -2,-2 -0.5,-0.2 -1,-0.3 -1.5,-0.3 -0.5,0 -1,0.1 -1.5,0.3 -0.4,0.2 -0.9,0.5 -1.2,0.8 -0.3,0.4 -0.6,0.8 -0.8,1.2 -0.2,0.5 -0.3,1 -0.3,1.5 h 7.7 c 0,-0.5 -0.2,-1 -0.4,-1.5 z m 7.1,-4 v 2.1 c 0.9,-1.6 2.6,-2.6 4.4,-2.5 0.8,0 1.5,0.1 2.2,0.4 0.6,0.2 1.1,0.6 1.5,1 0.4,0.4 0.6,0.9 0.8,1.5 0.2,0.7 0.2,1.3 0.2,2 v 8.9 h -2.2 v -9.1 c 0.1,-1.4 -0.9,-2.6 -2.3,-2.7 -0.2,0 -0.3,0 -0.5,0 -0.6,0 -1.2,0.1 -1.8,0.3 -0.5,0.2 -0.9,0.5 -1.3,0.9 -0.3,0.4 -0.6,0.8 -0.7,1.3 -0.2,0.5 -0.3,1.1 -0.3,1.7 v 7.6 h -2.2 V 73.8 Z m 18.2,0 v 2 h -2.7 v 8.4 c 0,0.2 0,0.4 0,0.6 0,0.1 0.1,0.3 0.3,0.4 0.1,0.1 0.3,0.2 0.5,0.2 0.3,0 0.6,0 0.8,0 h 1.1 v 1.9 h -1.7 c -0.5,0 -1,0 -1.5,-0.1 -0.4,-0.1 -0.7,-0.2 -1,-0.4 -0.3,-0.2 -0.5,-0.5 -0.6,-0.9 -0.1,-0.5 -0.2,-1 -0.2,-1.5 v -8.6 h -2.3 v -2 h 2.3 v -4 h 2.2 v 4 z m 11.9,12.6 c -1.1,0.8 -2.5,1.2 -3.8,1.1 -1,0 -1.9,-0.1 -2.8,-0.5 -0.8,-0.3 -1.4,-0.9 -2,-1.5 -0.6,-0.7 -1,-1.4 -1.2,-2.2 -0.3,-0.9 -0.4,-1.9 -0.5,-2.8 0,-1 0.2,-1.9 0.5,-2.8 0.3,-0.8 0.7,-1.6 1.3,-2.2 0.6,-0.6 1.2,-1.1 2,-1.5 0.8,-0.4 1.7,-0.5 2.5,-0.5 1,0 2.1,0.2 3,0.7 0.8,0.5 1.4,1.2 1.9,1.9 0.5,0.8 0.8,1.6 1,2.5 0.2,0.8 0.3,1.7 0.2,2.6 h -10.1 c 0,0.6 0,1.1 0.2,1.7 0.1,0.5 0.4,1 0.8,1.4 0.4,0.4 0.8,0.7 1.3,1 0.6,0.3 1.3,0.4 1.9,0.4 0.8,0 1.6,-0.2 2.3,-0.7 0.6,-0.5 1,-1.2 1.2,-2 h 2.2 c -0.1,1.4 -0.8,2.6 -1.9,3.4 z M 433,77.8 c -0.4,-0.9 -1.1,-1.6 -2,-2 -0.5,-0.2 -1,-0.3 -1.5,-0.3 -0.5,0 -1,0.1 -1.5,0.3 -0.4,0.2 -0.9,0.5 -1.2,0.8 -0.3,0.4 -0.6,0.8 -0.8,1.2 -0.2,0.5 -0.3,1 -0.3,1.5 h 7.7 c 0,-0.5 -0.2,-1 -0.4,-1.5 z m 7,-4 v 2.8 c 0.4,-1 1.1,-1.8 2,-2.4 0.9,-0.5 1.9,-0.8 3,-0.7 v 2.4 c -0.8,0 -1.5,0.1 -2.3,0.4 -0.6,0.2 -1.1,0.6 -1.5,1.1 -0.4,0.5 -0.7,1.1 -0.8,1.7 -0.2,0.8 -0.3,1.5 -0.3,2.3 v 6 H 438 V 74 Z"
   class="st0" />
</svg>
